<?xml version="1.0" standalone="no"?>
<!DOCTYPE svg PUBLIC "-//W3C//DTD SVG 20010904//EN"
 "http://www.w3.org/TR/2001/REC-SVG-20010904/DTD/svg10.dtd">
<svg version="1.0" xmlns="http://www.w3.org/2000/svg"
 width="1040.000000pt" height="1040.000000pt" viewBox="0 0 1040.000000 1040.000000"
 preserveAspectRatio="xMidYMid meet">
<metadata>
Created by potrace 1.11, written by Peter Selinger 2001-2013
</metadata>
<g transform="translate(0.000000,1040.000000) scale(0.100000,-0.100000)"
fill="#000000" stroke="none">
<path d="M5048 10328 c-652 -25 -1297 -250 -1857 -646 -206 -146 -465 -382
-623 -570 -45 -52 -80 -84 -97 -88 -529 -116 -1001 -377 -1377 -765 -434 -448
-747 -1076 -859 -1719 -87 -509 -79 -868 34 -1368 183 -813 610 -1577 1226
-2198 211 -213 2784 -2547 2919 -2648 157 -117 363 -206 561 -241 105 -19 318
-21 420 -5 226 35 468 143 642 287 39 32 668 591 1399 1242 1375 1226 1604
1440 1801 1682 609 753 959 1602 1024 2484 38 512 -110 1201 -367 1705 -418
823 -1090 1362 -1925 1544 -17 4 -52 36 -97 88 -104 124 -332 345 -462 449
-318 254 -695 461 -1076 588 -219 73 -334 103 -528 136 -251 42 -474 55 -758
43z m485 -714 c495 -54 962 -238 1364 -538 45 -33 82 -64 83 -67 0 -3 -26 -13
-57 -23 -157 -50 -379 -167 -553 -292 -378 -271 -770 -727 -1085 -1262 -33
-56 -62 -101 -65 -102 -3 0 -32 46 -65 103 -264 451 -634 904 -945 1154 -212
171 -479 328 -662 389 -43 14 -78 30 -78 35 0 23 216 173 386 268 311 174 690
296 1039 335 168 19 467 19 638 0z m-2299 -1273 c83 -22 255 -100 341 -154
132 -83 335 -258 467 -402 228 -248 479 -615 668 -977 51 -97 108 -195 126
-217 l34 -39 0 -377 0 -377 174 -209 175 -210 74 88 c41 48 120 142 176 208
l101 120 0 378 0 379 35 41 c19 22 58 86 86 141 177 346 388 672 595 920 131
157 365 383 485 468 229 164 466 253 658 246 l81 -3 -189 -234 -189 -235 69
-75 c173 -185 233 -458 153 -699 -38 -115 -77 -176 -174 -273 -152 -153 -288
-209 -504 -209 -160 0 -261 28 -384 106 -29 19 -54 34 -56 34 -6 0 -439 -541
-435 -544 2 -2 42 -30 89 -61 154 -106 346 -184 540 -220 139 -27 381 -25 517
4 264 55 509 183 702 366 131 124 268 325 327 479 47 125 56 103 43 -113 -15
-271 -54 -482 -135 -732 -199 -615 -647 -1179 -1210 -1521 -345 -209 -729
-339 -1149 -389 -141 -17 -469 -17 -610 0 -395 47 -753 163 -1080 349 -236
134 -389 254 -611 477 -450 452 -715 1006 -789 1650 -16 142 -20 325 -6 325 4
0 16 -21 26 -47 28 -75 112 -221 173 -303 174 -234 404 -400 683 -494 347
-116 710 -94 1045 63 80 38 241 138 261 163 8 10 -41 78 -197 271 -114 142
-212 263 -217 268 -6 6 -29 -3 -64 -26 -53 -35 -143 -73 -229 -96 -25 -7 -94
-12 -155 -12 -130 0 -230 24 -340 81 -97 51 -248 202 -292 292 -85 178 -103
329 -59 504 32 125 83 220 167 310 l67 72 -156 195 c-87 107 -173 214 -191
238 l-35 44 120 -6 c72 -3 150 -13 198 -26z m-1330 -393 c-54 -161 -121 -441
-143 -600 -38 -268 -41 -421 -41 -2015 0 -905 -4 -1553 -9 -1553 -5 0 -42 44
-83 97 -526 689 -827 1621 -744 2303 76 626 295 1134 668 1548 102 112 348
322 378 322 5 0 -7 -46 -26 -102z m6682 53 c197 -141 430 -397 574 -631 77
-126 202 -389 248 -520 54 -156 107 -371 134 -543 29 -191 32 -535 5 -707 -86
-551 -292 -1076 -608 -1547 -72 -107 -199 -273 -210 -273 -4 0 -10 755 -12
1678 -4 1815 -1 1719 -57 2017 -33 173 -111 454 -156 563 -10 22 12 12 82 -37z
m-556 -4100 l0 -828 -229 -202 c-126 -110 -232 -201 -235 -201 -3 0 -6 351 -6
779 l0 779 143 143 c78 79 180 192 227 251 47 59 88 108 93 108 4 0 7 -373 7
-829z m-5515 717 c44 -55 142 -164 217 -242 l138 -141 0 -782 c0 -431 -4 -783
-8 -783 -5 0 -106 89 -225 197 l-217 197 0 828 c0 455 3 828 8 827 4 0 43 -46
87 -101z m1138 -914 c736 -371 1593 -469 2397 -273 224 55 509 158 702 255 48
24 92 44 98 44 7 0 10 -279 9 -852 l0 -853 -643 -570 c-498 -441 -659 -578
-713 -608 -197 -105 -443 -102 -631 10 -51 30 -746 650 -1254 1119 l-58 53 0
855 c0 578 3 856 10 856 6 0 43 -16 83 -36z"/>
</g>
</svg>
