<svg xmlns="http://www.w3.org/2000/svg" version="1.0" viewBox="-47.2 -69.38 684.4 273.76" preserveAspectRatio="xMidYMid meet"><path fill="#016067" d="M422.1 1.4c-8.6 4.8-5.5 18 4.4 19.2 10.4 1.3 16.4-9.9 9.1-17.2-2.7-2.7-4.2-3.4-7.2-3.4-2.2.1-5 .7-6.3 1.4m37.4 3.8c-1.5 4.5-15.5 74.6-16 80.4-.9 9.3 1.4 15.2 7 17.8 4.5 2.2 10.6 1.7 14.4-1.1 3-2.3 3.8-4.3 1.6-4.3-.9 0-2.8-1.2-4.2-2.6-2.4-2.4-2.5-3-1.9-9.5.3-3.7 4-23.1 8.1-43S476 6.1 476 5.4c0-1.9-15.9-2-16.5-.2m40 0c-1.1 3-14.4 68.2-15.5 75.7-1.4 9.4-.8 15.2 2.1 19.2 3.9 5.6 14.1 6.2 19.6 1.2l2.7-2.6-2.4-.9c-4.4-1.6-6-3.8-6-8.3 0-5.3.7-8.9 9.1-49.6 3.8-18.6 6.9-34.2 6.9-34.8 0-1.6-15.9-1.5-16.5.1M29.9 53.7C13.9 80.5.5 102.9.3 103.3c-.3.4 3.7.6 8.8.5l9.3-.3L24 94l5.6-9.5 17.2-.3c9.5-.1 17.2.1 17.2.5 0 1.1 1.9 13.2 2.6 16.6l.6 2.7h8.9c6.5 0 8.9-.3 8.9-1.3-.1-.6-4.5-22.8-9.9-49.2l-9.8-48-3-.3c-3.1-.3-3.2-.1-32.4 48.5m29.5.8c1.4 8.8 2.3 16.1 2.2 16.3-.2.1-5.7.1-12.3 0l-11.9-.3L47 53.2c5.2-9.5 9.6-16.7 9.7-16 .2.7 1.4 8.5 2.7 17.3M329 8.4c0 1.4 17.3 89.7 18.7 95.3.4 1.9 1.2 2.3 4.8 2.3 2.3 0 4.7-.6 5.3-1.2.8-1.1 48.8-87.4 53.1-95.6l1.2-2.2h-19.6L376 38c-9 17-16.7 31-17 31s-3.1-13.8-6.1-30.8l-5.5-30.7-9.2-.3c-7.7-.2-9.2 0-9.2 1.2m-209.7 25C105.2 38 94.2 50.5 90.5 66.2c-4.1 17.6 1 31.3 13.7 36.8 4.3 1.8 6.5 2.1 13.7 1.8 5.4-.2 9.8-.9 11.9-2 4-2.1 4-2.6.7 15.1-1.4 7.4-2.5 13.6-2.5 13.8 0 .1 3.8.3 8.4.3h8.5l1-5.3c.6-2.8 4-21.2 7.6-40.7 5.8-31.4 8.8-45.5 11-51.3.6-1.5.1-1.7-4.1-1.7-3.1 0-6.1.7-8 1.9-3.2 1.9-3.2 1.9-7.5-.2-5.4-2.7-19.1-3.4-25.6-1.3M140 47.5c1.7.9 3 1.8 3 2.2 0 .6-4.2 23.2-6.1 33-1 4.9-1.3 5.3-5.4 6.9-5.7 2.1-14.5 1.5-18.3-1.3-1.5-1-3.5-3.5-4.5-5.4-2.4-4.5-1.8-14.5 1.3-21.7 2.5-5.9 9.5-12.7 14.4-14.1s12.4-1.2 15.6.4m131.5-14.1c-18.1 5.7-30.6 24.4-30.9 46.1-.1 7.2.2 8.8 2.9 14 2.5 5 3.9 6.3 8.4 8.7 9.2 4.8 24.3 3.4 31.4-3 1.7-1.5 2-1.4 4.3 1.6 2.4 3 2.9 3.2 9.1 3.2 6.3 0 6.5-.1 5.9-2.3-.3-1.2-.9-6-1.2-10.7-.5-7.4-.1-11.4 3.5-30 5.5-29.1 5.6-26.2-.4-27.6-6.7-1.6-27.9-1.6-33 0m18.8 13.3c.7 1.1-1.8 14.7-4.3 24.2-2.4 8.8-6.5 16-10.5 18.7-4.1 2.7-11.2 2.2-14.4-1-2.4-2.5-2.6-3.3-2.5-10.9.2-13.1 6.2-25.5 14.4-29.8 3.5-1.9 16.4-2.7 17.3-1.2m260-12.8C533.2 40.1 521 59.1 521 79.5c0 8.5 1.4 13.4 5.3 18.1 4.3 5.2 9.7 7.4 18.3 7.4 7.7 0 13.7-1.7 18.6-5.2 2.4-1.6 3.3-1.9 3.6-.9 1.2 3.7 4.2 5.1 10.6 5.1h6.5l-1-3.2c-2-7.2-1-21.7 3.1-43.6 2.2-11.7 3.8-21.7 3.5-22.2-2.1-3.3-30.6-4.1-39.2-1.1M571 48c0 3.2-4 21.3-6.1 27.6-2.4 7.3-7.8 14.1-12.2 15.2-3.7 1-9.4 0-11.4-2.1-3.6-3.6-3.2-17.5.7-26.5 5.7-12.9 12.3-17.3 24.6-16.3 3.4.2 4.4.7 4.4 2.1m-394.9-9.8c-4.5 22.3-8.1 43.5-8.1 48 0 7.2 3.3 13.5 8.6 16.6 3.5 2 4.9 2.2 13.4 1.9 7-.2 10.8-.9 14.3-2.4 4.6-2.1 4.7-2.1 4.7-.2 0 1.7.7 1.9 8.3 1.9h8.2l6.4-34.3c3.5-18.8 6.6-34.8 6.9-35.5.3-1-1.5-1.2-8.4-1l-8.8.3-2.7 15.4c-1.5 8.5-3.3 18.5-3.9 22.3-2.1 12.2-9.6 19.8-19.5 19.8-5.9 0-9.1-1.9-9.9-5.8-.4-1.5 1.3-13 3.9-26.7 2.5-13.2 4.5-24.3 4.5-24.8 0-.4-3.8-.7-8.4-.7h-8.5zm232 .5c-1.6 8.3-1.6 8.3 2.9 8.3 3.1 0 4 .4 4 1.7 0 1-2.3 13.7-5 28.3s-5 26.6-5 26.7c0 .2 3.8.3 8.4.3 7.2 0 8.5-.3 9-1.8.8-2.6 12.6-66.3 12.6-67.9 0-1-2.7-1.3-12.9-1.3h-12.8zm-30.8 80.2c-.3 1.1-1.7 2.1-3.3 2.5-3.4.6-5.4 3.8-4.6 7.1.7 2.7 2.3 3.5 5.8 2.8 2.8-.5 3.2-1.4 4.3-9.6.5-3.4.4-4.7-.5-4.7-.6 0-1.4.9-1.7 1.9m-1.5 7.3c-.4 2.9-3.8 3.8-3.8 1 0-2.2.8-3.2 2.7-3.2.9 0 1.3.8 1.1 2.2m15.2-3.7c-1.2 5.8-1.1 9 .4 9 .5 0 1-.9 1.2-2 .1-1.1.6-3.9.9-6.2.8-5.6.8-5.7-.3-6.1-.6-.2-1.6 2.2-2.2 5.3m82.1-3.2c-.5 1.3-1.3 4.5-1.6 7.2-.6 3.8-.5 4.7.6 4.3.8-.2 1.5-1.7 1.7-3.1.2-1.9.9-2.7 2.3-2.7 1 0 1.9-.5 1.9-1 0-.6-.7-1-1.5-1s-1.5-.7-1.5-1.5c0-.9.9-1.5 2.4-1.5 2.4 0 2.5.3 2.3 5.5-.1 3 .2 5.6.7 5.7.5.2 1-.6 1.1-1.7.2-1.1.6-4.4 1-7.3l.8-5.2h-4.7c-4 0-4.8.3-5.5 2.3m39.9-.8c0 .8.7 1.5 1.5 1.5s1.5-.7 1.5-1.5-.7-1.5-1.5-1.5-1.5.7-1.5 1.5m29.5.9c-2.6 2.6-3.4 7.7-1.6 10.6 1.2 1.8 8 1.7 9.2-.2.5-.7.9-2.5.9-4.1 0-2.2-.4-2.7-2.5-2.7-2.6 0-3.5 2.5-1.2 3.3.9.3.9.7 0 1.7-1.9 2-4.3.4-4.3-2.8 0-3.5 1.4-4.9 5.5-5.4 4-.4 3.8-2.2-.2-2.6-2.4-.2-3.9.3-5.8 2.2m-196.9.3c-.3 1-.8 3.9-1.2 6.5l-.6 4.8h4.6c2.5 0 4.6-.5 4.6-1 0-.6-1.4-1-3.1-1-2.4 0-3-.4-2.7-1.8.2-.9 1.3-1.8 2.6-2 2.8-.4 2.9-2.2.1-2.2-3.3 0-1.6-2.5 1.9-2.8 4.8-.5 3.8-2.2-1.2-2.2-3.4 0-4.6.4-5 1.7m84 .5c-6.2 9.9-6.6 10.8-5.2 10.8.8 0 1.8-.5 2.1-1 .3-.6 1.7-1 3.1-1 1.3 0 2.4.4 2.4 1 0 .5.7 1 1.5 1s1.5-.5 1.5-1.1.7-.3 1.6.6 2.3 1.4 3 1.1c.9-.3 1.4.2 1.4 1.4 0 2.3 1.5 2.7 2.3.6.6-1.5 2-10.1 1.8-11.3 0-.4-1.2-.9-2.7-1-2.9-.4-6.2 1.9-7.4 5.2-.5 1.5-.9.7-1.5-3.3-.8-5.7-1.7-6.4-3.9-3m1 6.5c-1.1 1.1-1.7-.4-.9-2.3.7-1.8.8-1.8 1.1-.1.2 1 .1 2.1-.2 2.4m11.4-.2c0 1.8-.5 2.5-2 2.5-2 0-2.8-2.8-1.3-4.3 1.5-1.6 3.3-.6 3.3 1.8m63.5-5.8c-.5 1-1 3.7-1.2 6-.3 3.5 0 4.3 1.7 4.8 2.1.7 4 0 4-1.6 0-.5-.7-.9-1.5-.9-2.2 0-1.8-3.7.4-5 3.1-1.6 3.4-1.3 2.7 3-.5 3.1-.3 4 .8 4 1.3 0 2.6-4.1 2.6-8.2 0-1.7-.5-1.9-2.5-1.4-1.8.5-2.7.2-3.1-.9-.8-2-3-1.9-3.9.2"/><path d="M355 123.8c0 1.5-.3 3.7-.6 4.9-.5 1.7-.2 2.3 1 2.3.9 0 1.6-.8 1.6-1.9 0-3.1 1.1-5.1 2.7-5.1 1.2 0 1.4.8.9 3.5s-.4 3.5.7 3.5c1.9 0 3.2-6.7 1.7-8.5-.6-.7-2.6-1.3-4.5-1.3-3.1 0-3.5.3-3.5 2.6m27.3-1.3c-4.4 3.1-1.6 11 3.3 9.1 2.2-.8 1.6-2.6-.8-2.6-1.9-.1-1.7-.3 1-1.5 2.6-1.1 3.3-2 3-3.7-.4-2.8-3.5-3.4-6.5-1.3m4.4 2.1c-.3.3-1.2.4-1.9.1-.8-.3-.5-.6.6-.6 1.1-.1 1.7.2 1.3.5m15.4-1.7c-2.4 2.4-2.7 6.3-.7 8 .7.6 2.7.8 4.5.5 2.7-.6 3.1-1.1 3.3-4 0-1.9.1-4 .2-4.7.2-2.1-5.1-2-7.3.2m4 3.3c-1 2.8-3.1 3.5-3.1 1 0-2.2.8-3.2 2.6-3.2 1 0 1.1.6.5 2.2m5-3.5c.1 3 2.3 8.3 3.4 8.1.9-.2 6.5-8.2 6.5-9.3 0-1.7-3.2 0-4.4 2.2l-1.4 2.8-1.1-2.8c-1.2-3-3.1-3.7-3-1m35.9.8c-2.4 6.3-.7 9 4.7 7.6 2.3-.6 2.9-1.4 3.4-4.7 1.1-6.5-1.3-7.4-2.5-.9-.5 2.3-1.3 3.5-2.3 3.5-1.2 0-1.4-.7-1-3.5.7-4.2-.9-5.6-2.3-2m11.1-.6c-2.3 2.3-2.8 6.3-.8 7.9 2 1.7 7.2 0 7.4-2.3.1-1.1.3-3.1.5-4.5.2-2.1-.2-2.6-2.4-2.8-1.7-.2-3.4.4-4.7 1.7m3.5 4.7c-.3.8-1 1.4-1.6 1.4-1.4 0-1.3-3.3.3-4.9 1-1 1.3-.9 1.5.4.2.9.1 2.3-.2 3.1m23.5-4.7c-2.9 2.9-2.7 6.9.3 8.2 2.5 1.2 6.6-.2 6.6-2.1 0-.6.9-.1 2 1 1.5 1.5 2.7 1.9 4.8 1.4 1.5-.4 2.8-.7 2.8-.8.1-.1.5-2.2.8-4.9l.7-4.7h-3q-3 0-4.8 2.4l-1.8 2.3-1-2.1c-1.4-2.9-4.9-3.2-7.4-.7m4.7 3.3c-.4 2.9-3.8 3.8-3.8 1 0-2.2.8-3.2 2.7-3.2.9 0 1.3.8 1.1 2.2m9.8-.6c-.3.9-.6 2-.6 2.5s-.7.9-1.5.9c-1.5 0-2.1-3.1-.8-4.3 1.3-1.4 3.5-.7 2.9.9m17-1.4c-.9 4.8-.7 7 .7 6.6.6-.3 1.4-1.8 1.7-3.4s1.2-3 2.1-3.2c1.2-.2 1.4.5 1.1 3.4-.3 2.8-.1 3.5.9 3.2.9-.3 1.4-2 1.4-4.9 0-4.4 0-4.4-3.6-4.5-3.3-.2-3.7.1-4.3 2.8m10.9-1.3c-1.5 1.8-1.6 2.4-.4 5 .8 1.7 2 3.1 2.6 3.1.7 0 1.3.5 1.3 1.1s-1 .9-2.2.7c-1.3-.1-2.5.2-2.8.7-.3.6.9 1.1 2.6 1.3 3.8.4 6.3-2.1 4.7-4.6-.7-1.3-.7-2.1.3-3 .8-.7 1.4-2.4 1.4-3.7 0-2.1-.5-2.5-2.8-2.5-1.6 0-3.7.9-4.7 1.9m4.3 2.3c-.6 1.8-2.8 2.1-2.8.4 0-.9.7-1.6 1.6-1.6s1.4.5 1.2 1.2m21.8-3.3c-.2.3-.7 2.5-1.1 4.8-.6 3.6-.4 4.3.9 4.3.9 0 1.6-.8 1.6-1.9 0-3 1.1-5.1 2.6-5.1.9 0 1.4 1.1 1.4 3 0 5.3 6 6.2 8.9 1.2.9-1.5 1-1.5 1.1.4 0 2.6 1.6 3.4 5.3 2.7 2.7-.5 3.3-1.6 3.9-7.2.5-3.9-1.8-3.5-2.8.6-1.3 5.1-3.7 5.7-3.2.7.2-2.3-.2-3.9-1-4.2-.6-.2-1.2.3-1.2 1.2 0 2.1-1 2-2.6-.1-1.1-1.5-1.7-1.6-4.3-.6-1.7.6-3.1.7-3.1.3 0-1-5.9-1-6.4-.1m12.4 3c0 2.1-1.3 4.1-2.6 4.1-1.4 0-1.9-3.1-.7-4.3 1-1 3.3-.8 3.3.2m13.1 2.6c-1.4 7.7-1.4 7.5.4 7.5.8 0 1.5-.9 1.5-2 0-1.2.5-1.7 1.3-1.4 2 .7 6.7-3.4 6.7-6.1 0-3-1.9-4.4-5.7-4.3-3.1.1-3.2.3-4.2 6.3m6.7-1.3c-.5 3.4-3.8 3.7-3.8.4 0-2 .5-2.6 2.1-2.6 1.5 0 2 .5 1.7 2.2"/></svg>