<svg width="24" height="24" viewBox="0 0 24 24" fill="none" xmlns="http://www.w3.org/2000/svg">
<path d="M15.6235 21C16.4188 21 17 20.4393 17 19.695V4.35338C17 3.59936 16.4188 3 15.6031 3C15.0627 3 14.6753 3.21267 14.0839 3.72503L9.60784 7.69817C9.54667 7.75618 9.4651 7.77551 9.37333 7.77551H6.41647C4.84627 7.77551 4 8.59721 4 10.1633V13.8561C4 15.4221 4.84627 16.2438 6.41647 16.2438H9.37333C9.4651 16.2438 9.54667 16.2632 9.60784 16.3212L14.0839 20.3136C14.6243 20.7873 15.0729 21 15.6235 21Z"/>
</svg>
