<svg width="19" height="22" viewBox="0 0 19 22" fill="none" xmlns="http://www.w3.org/2000/svg">
<path d="M9.7832 10.2207C10.3105 10.2207 10.7305 9.80078 10.7305 9.26367C10.7305 9 10.6328 8.78516 10.457 8.60938L7.80078 5.97266C8.30859 5.88477 8.89453 5.83594 9.5293 5.83594C13.2891 5.83594 16.2871 8.84375 16.2871 12.6426C16.2871 16.4121 13.2695 19.4395 9.5 19.4395C5.74024 19.4395 2.71289 16.4121 2.71289 12.6426C2.71289 12.0566 2.33203 11.6367 1.76563 11.6367C1.17969 11.6367 0.769532 12.0566 0.769532 12.6426C0.769532 17.4863 4.66602 21.3828 9.5 21.3828C14.3438 21.3828 18.2305 17.4863 18.2305 12.6426C18.2305 7.79883 14.3633 3.93164 9.5293 3.93164C9.07031 3.93164 8.60156 3.9707 8.13281 4.03906L10.4668 1.75391C10.6328 1.56836 10.7305 1.35352 10.7305 1.08984C10.7305 0.552734 10.3203 0.113281 9.7832 0.113281C9.5 0.113281 9.27539 0.210938 9.09961 0.40625L5.0957 4.47852C4.89063 4.67383 4.79297 4.92773 4.79297 5.19141C4.79297 5.46484 4.88086 5.69922 5.0957 5.91406L9.10938 9.94727C9.27539 10.1328 9.5 10.2207 9.7832 10.2207Z" fill="white"/>
</svg>
