<svg width="24" height="24" viewBox="0 0 24 24" fill="none" xmlns="http://www.w3.org/2000/svg">
<path d="M16.6758 4.23438C16.6758 3.47266 16.1191 2.86719 15.3379 2.86719C14.8203 2.86719 14.4492 3.08203 13.8828 3.59961L9.99609 7.25195C9.9375 7.31055 9.88867 7.33984 9.83008 7.35938L9.48828 7.38867L16.6758 14.5664V4.23438ZM19.8496 21.6465C20.1523 21.9492 20.6602 21.9492 20.9531 21.6465C21.2461 21.334 21.2559 20.8457 20.9531 20.543L3.83398 3.44336C3.53125 3.14062 3.0332 3.13086 2.73047 3.44336C2.4375 3.73633 2.4375 4.24414 2.73047 4.53711L19.8496 21.6465ZM6.53906 16.2461H9.37109C9.45898 16.2461 9.53711 16.2656 9.5957 16.3242L13.8828 20.3574C14.4004 20.8359 14.8301 21.0508 15.3574 21.0508C15.8555 21.0508 16.2656 20.7969 16.4805 20.4258C16.5195 20.3281 16.5684 20.2305 16.5977 20.123L4.81055 8.33594C4.42969 8.72656 4.22461 9.33203 4.22461 10.1035V13.834C4.22461 15.416 5.03516 16.2461 6.53906 16.2461Z" fill="white"/>
</svg>
