<svg xmlns="http://www.w3.org/2000/svg" viewBox="-327.68 -290.772 4751.36 1900.544" preserveAspectRatio="xMidYMid meet"><path fill="#EE4691" d="M722 13.4c0 8.9-.1 9.6-2 9.6-1.8 0-2 .7-2 7.7 0 4.3-.3 12.9-.7 19-.5 10.1-.8 11.3-2.5 11.3s-1.8 1.1-1.8 17.4c0 20.2-.5 23.6-3.1 23.6-1.8 0-1.9 1-1.9 14.5 0 13.8-.1 14.5-2 14.5-1.8 0-2 .7-2 6.7 0 3.8-.3 9.8-.7 13.5-.5 5.7-.9 6.8-2.4 6.8-1.7 0-1.9.9-1.9 9.5 0 9.5 0 9.5-2.5 9.5-2.4 0-2.5.2-2.5 7 0 6.3-.2 7-2 7-1.6 0-2 .7-2 3.2 0 6.9-1.2 10.8-3.1 10.8-1.7 0-1.9.8-1.9 7 0 6.8-.1 7-2.5 7-2.3 0-2.5.3-2.5 5 0 4.3-.3 5-2 5-1.6 0-2 .7-2 3.4 0 6.2-1.1 9.6-3.1 9.6-1.6 0-1.9.8-1.9 5 0 4.3-.3 5-1.9 5s-2.1.9-2.7 4.5c-.5 3.4-1.1 4.5-2.4 4.5-1.4 0-2 1.1-2.5 5-.6 4-1.1 5-2.6 5-1.6 0-1.9.7-1.9 4.5 0 4.1-.2 4.5-2.5 4.5s-2.5.4-2.5 4.5c0 3.7-.3 4.5-1.9 4.5-1.5 0-2 1-2.5 4.5-.6 3.6-1.1 4.5-2.7 4.5-1.4 0-1.9.7-1.9 2.5 0 2-.5 2.5-2.5 2.5-2.3 0-2.5.4-2.5 4.5 0 3.8-.3 4.5-2 4.5-1.5 0-2 .7-2 2.5 0 2-.5 2.5-2.5 2.5s-2.5.5-2.5 2.5c0 1.8-.5 2.5-1.9 2.5-1.6 0-2.1.9-2.7 4.5-.5 3.4-1.1 4.5-2.4 4.5-1.2 0-2 .9-2.2 2.2-.2 1.5-1.1 2.4-2.5 2.6s-2.3 1.1-2.5 2.5-1.1 2.3-2.5 2.5c-1.5.2-2.3 1-2.3 2.3 0 1.2-.7 1.9-1.9 1.9-1.5 0-2 1-2.5 4.5-.6 3.6-1.1 4.5-2.8 4.5-1.1 0-2.2.8-2.5 2-.4 1.4-1.7 2.2-4.3 2.6-3.6.6-3.8.9-4.5 4.9-.6 4.1-.8 4.4-4.5 5-2.6.4-4 1.3-4.3 2.6a2.7 2.7 0 01-2.5 1.9c-1.4 0-2.2.8-2.4 2.2-.2 1.5-1.1 2.4-2.5 2.6-1.5.2-2.3 1-2.3 2.3 0 1.4-.7 1.9-2.5 1.9-2 0-2.5.5-2.5 2.5 0 2.3-.4 2.5-4.5 2.5s-4.5.2-4.5 2.5c0 2-.5 2.5-2.5 2.5-1.8 0-2.5.5-2.5 2s-.7 2-2.5 2-2.5.5-2.5 1.9c0 1.6-.9 2.1-4.5 2.7-3.9.5-4.5 1-4.5 3 0 2.2-.4 2.4-4.5 2.4-3.7 0-4.5.3-4.5 1.9 0 1.5-1 2-4.5 2.5-3.6.6-4.5 1.1-4.5 2.7s-.7 1.9-4.4 1.9c-3.9 0-4.5.3-4.8 2.2-.3 2-1 2.3-5 2.6-3.9.3-4.8.7-4.8 2.2s-.9 1.9-4.7 2.2c-4.1.3-4.8.6-5.1 2.5-.3 2.1-.9 2.3-6.8 2.3-5.6 0-6.4.2-6.4 1.9 0 1.9-3.9 3.1-10.7 3.1-2.6 0-3.3.4-3.3 2 0 1.9-.7 2-9.5 2-9.5 0-9.5 0-9.5 2.5v2.5h-12c-11 0-12 .2-12 1.8 0 1.7-1.2 2-9.7 2.5-5.4.4-13.7.7-18.5.7-8.1 0-8.8.2-8.8 2 0 2-.7 2-28 2h-28v-12.3c0-15.7.7-19.7 3.1-19.7 1.8 0 1.9-1 1.9-13.4 0-16.1.6-19.6 3.1-19.6 1.8 0 1.9-1 1.9-14.5 0-13.8.1-14.5 2-14.5s2-.7 2-10.4c0-13.1.7-16.6 3.1-16.6 1.8 0 1.9-1 1.9-16.1 0-14.9.1-16.1 1.9-16.6 2.5-.7 3.1-4.1 3.1-19.4 0-12.2.1-12.9 2-12.9s2-.7 2-10.3c0-13.7.7-17.7 3.1-17.7 1.8 0 1.9-1.1 1.9-16.5s.1-16.5 1.9-16.5c2.5 0 3.1-4 3.1-20.3 0-12 .1-12.7 2-12.7s2-.7 2-16-.1-16-2-16c-1.7 0-2-.7-2-4.4 0-3.9-.3-4.5-2.2-4.8a2.8 2.8 0 01-2.6-2.6c-.3-1.6-1-2.2-2.8-2.2-1.9 0-2.4-.5-2.4-2.5 0-2.3-.4-2.5-4.5-2.5-3.7 0-4.5-.3-4.5-1.9 0-1.5-1-2-4.5-2.5-3.6-.6-4.5-1.1-4.5-2.7s-.7-1.9-5-1.9-5-.3-5-1.9-.9-2.1-4.5-2.7c-3.5-.5-4.5-1-4.5-2.5s-.7-1.9-3.2-1.9c-6.9 0-10.8-1.2-10.8-3.1 0-1.6-.8-1.9-4.5-1.9-3.8 0-4.5-.3-4.5-2 0-1.6-.9-2.1-5-2.6-4-.5-5-1-5-2.5 0-1.6-.8-1.9-4.5-1.9-4.1 0-4.5-.2-4.5-2.5s-.3-2.4-6.7-2.7c-6.2-.3-6.8-.5-7.1-2.6-.3-1.9-.9-2.2-4.8-2.2-3.7 0-4.4-.3-4.4-2s-.7-2-4.5-2c-4.1 0-4.5-.2-4.5-2.5s-.3-2.5-5-2.5c-4.2 0-5-.3-5-1.9 0-1.5-1-2-4.5-2.5-3.6-.6-4.5-1.1-4.5-2.7 0-1.5-.7-1.9-3.9-1.9-6.7 0-10.1-1.1-10.1-3.1 0-1.6-.8-1.9-4.6-1.9-3.7 0-4.7-.4-5.1-1.9-.4-1.6-4-3.1-7.4-3.1-.5 0-1.1 2.2-1.5 5-.5 3.9-1 5-2.5 5-1.6 0-1.9 1.1-2.1 9.2-.3 8.8-.4 9.3-2.5 9.6-2.2.3-2.3.7-2.3 11.8 0 10.7-.1 11.4-2 11.4-1.8 0-2 .7-2 7.7 0 11.3-.9 15.3-3.1 15.3-1.7 0-1.9.9-1.9 11.5V149h-5v11.5c0 10.8-.1 11.5-2 11.5-1.7 0-2 .7-2 5.2 0 2.9-.3 8.3-.7 12-.5 5.7-.9 6.8-2.4 6.8-1.7 0-1.9.9-1.9 9.5 0 9.5 0 9.5-2.5 9.5H158v11.5c0 10.8-.1 11.5-2 11.5-1.8 0-2 .7-2 6.7 0 3.8-.3 9.8-.7 13.5-.5 5.7-.9 6.8-2.4 6.8-1.7 0-1.9.9-1.9 9.4 0 9-.1 9.5-2.2 9.8-2.2.3-2.3.7-2.6 12-.2 11-.4 11.8-2.2 11.8-1.7 0-2 .7-2 4.7 0 2.7-.3 7.8-.7 11.5-.5 5.7-.9 6.8-2.4 6.8-1.7 0-1.9.9-1.9 8.4 0 11.1-.7 14.6-3.1 14.6-1.7 0-1.9.9-1.9 11.5 0 10.8-.1 11.5-2 11.5-1.8 0-2 .7-2 5.7 0 9.2-1 13.3-3.1 13.3-1.7 0-1.9 1.1-2.1 11.7-.3 11.4-.4 11.8-2.5 12.1-2.2.3-2.3.7-2.3 11.8 0 10.7-.1 11.4-2 11.4-1.8 0-2 .7-2 7.7 0 11.3-.9 15.3-3.1 15.3-1.7 0-1.9.9-1.9 8.4 0 11.1-.7 14.6-3.1 14.6-1.7 0-1.9.9-1.9 11.5 0 10.8-.1 11.5-2 11.5-1.8 0-2 .7-2 6.2 0 9.8-.9 13.8-3.1 13.8-1.7 0-1.9.9-1.9 11.5s-.2 11.5-1.9 11.5c-2.4 0-3.1 3.5-3.1 14.6 0 7.7-.2 8.4-2 8.4s-2 .7-2 7.7c0 11.3-.9 15.3-3.1 15.3-1.7 0-1.9.9-1.9 8.4 0 10.8-.7 14.3-3.1 14.9-1.7.5-1.9 1.6-1.9 12.1 0 10.9-.1 11.6-2 11.6-1.8 0-2 .8-2.2 9.2-.3 8.8-.4 9.3-2.6 9.6-2.1.3-2.2.7-2.2 10.6 0 13.1-.7 16.6-3.1 16.6-1.8 0-1.9.9-1.9 12 0 11.3-.1 12-2 12-1.8 0-2 .7-2 5.9 0 8.6-.9 12.1-3.1 12.1-1.8 0-1.9.9-1.9 12v12h-5v11.5c0 10.8-.1 11.5-2 11.5-1.8 0-2 .7-2 7.7 0 11.3-.9 15.3-3.1 15.3-1.7 0-1.9.9-1.9 8.4 0 9.9-.8 14.6-2.5 14.6-1.5 0-2.5 5.3-2.5 13.2 0 5.1-.2 5.8-2 5.8s-2 .7-2 8.4c0 11.1-.7 14.6-3.1 14.6-1.8 0-1.9.9-1.9 12s-.1 12-1.9 12c-2.2 0-3.1 4-3.1 15.2 0 7.1-.2 7.8-2 7.8s-2 .7-2 7.7c0 11.3-.9 15.3-3.1 15.3-1.7 0-1.9.9-1.9 11.6 0 10.5-.2 11.6-1.9 12.1-2.4.6-3.1 4.7-3.1 17.5 0 9.1-.1 9.8-2 9.8-1.6 0-2 .7-2 3s.4 3 2 3 2 .7 2 3.4c0 6.2 1.1 9.6 3.1 9.6 1.4 0 1.9.7 1.9 2.5 0 2.3.3 2.5 5 2.5 4.3 0 5 .3 5 1.9s.9 2.1 4.5 2.7c3.5.5 4.5 1 4.5 2.5 0 1.7.8 1.9 6.5 1.9 6.3 0 6.5.1 6.5 2.5 0 2.3.3 2.5 5 2.5 4.3 0 5 .3 5 2 0 1.6.7 2 3.4 2 6.2 0 9.6 1.1 9.6 3.1 0 1.6.8 1.9 5 1.9 4.7 0 5 .2 5 2.5 0 2.4.2 2.5 7 2.5 6.2 0 7 .2 7 1.9 0 1.5 1 2 5 2.6s5 1.1 5 2.6.7 1.9 3.4 1.9c6.2 0 9.6 1.1 9.6 3.1 0 1.6.8 1.9 5 1.9 4.3 0 5 .3 5 2 0 1.6.7 2 3.3 2 6.8 0 10.7 1.2 10.7 3.1 0 1.6.8 1.9 4.3 1.9 6.1 0 8.7.9 8.7 3.1 0 1.6.8 1.9 5 1.9 4.3 0 5 .3 5 1.9 0 1.7.8 2 4.8 2.3s4.7.6 5 2.5c.2 1.5 1 2.3 2.3 2.3 1.6 0 1.9-.7 1.9-4.5 0-4.1.2-4.5 2.5-4.5 2.5 0 2.5 0 2.5-9.5 0-8.8.1-9.5 2-9.5 1.8 0 2-.7 2-8.4 0-11.1.7-14.6 3.1-14.6 1.7 0 1.9-.8 1.9-7 0-6.3.2-7 2-7 1.7 0 2-.7 2-4.8 0-2.6.3-7.7.7-11.5.5-5.6.9-6.7 2.4-6.7 1.7 0 1.9-.9 1.9-9.5 0-9.5 0-9.5 2.5-9.5s2.5 0 2.5-9.5c0-8.8.1-9.5 2-9.5 1.7 0 2-.7 2-3.8 0-2.2.3-7.3.6-11.5.6-6.5 1-7.7 2.5-7.7 1.6 0 1.9-1.1 2.1-9.2.3-8.8.4-9.3 2.5-9.6 2.2-.3 2.3-.8 2.3-9.3 0-8.2.1-8.9 2-8.9 1.8 0 2-.7 2-5.8 0-9.1 1-13.2 3.1-13.2 1.6 0 1.9-1.1 2.1-9.3.3-8.7.4-9.2 2.5-9.5 2.2-.3 2.3-.7 2.3-11.8 0-10.7.1-11.4 2-11.4 1.7 0 2-.7 2-4.9 0-9.2 1.1-14.1 3.1-14.1 1.7 0 1.9-.9 1.9-9 0-8.9 0-9 2.5-9s2.5 0 2.5-9.5c0-8.8.1-9.5 2-9.5 1.8 0 2-.7 2-7.8 0-11.1.9-15.2 3.1-15.2 1.6 0 1.9-1.1 2.1-9.3.3-8.7.4-9.2 2.6-9.5 2.1-.3 2.2-.8 2.2-9.8 0-8.7.1-9.4 2-9.4 1.7 0 2-.7 2-4.3 0-2.3.3-7.2.7-11 .5-5.6.9-6.7 2.4-6.7 1.7 0 1.9-.9 1.9-9.5 0-9.5 0-9.5 2.5-9.5s2.5 0 2.5-9.5c0-8.6.2-9.5 1.9-9.5 1.5 0 2-1 2.5-4.5.6-3.5 1.1-4.5 2.6-4.5 1.2 0 2 .8 2.2 2.2a2.8 2.8 0 002.6 2.6c1.9.3 2.2.9 2.2 4.8 0 4 .2 4.4 2.5 4.4s2.5.4 2.5 4.5c0 3.8.3 4.5 1.9 4.5 1.3 0 2.1.8 2.3 2.2a2.8 2.8 0 002.6 2.6c1.9.3 2.2.9 2.2 4.8 0 4 .2 4.4 2.5 4.4 2 0 2.5.5 2.5 2.5 0 1.8.5 2.5 1.9 2.5 1.5 0 2 1 2.5 4.5.6 3.6 1.1 4.5 2.7 4.5 1.4 0 1.9.7 1.9 2.5s.5 2.5 1.9 2.5c1.6 0 2.1.9 2.7 4.5.5 3.5 1 4.5 2.5 4.5 1.4 0 1.9.7 1.9 2.5 0 2 .5 2.5 2.5 2.5 2.3 0 2.5.4 2.5 4.5s.2 4.5 2.5 4.5c2 0 2.5.5 2.5 2.5 0 1.8.5 2.5 1.9 2.5 1.5 0 2 1 2.5 4.5.6 3.6 1.1 4.5 2.7 4.5 1.4 0 1.9.7 1.9 2.5s.5 2.5 1.9 2.5c1.6 0 2.1.9 2.7 4.5.5 3.5 1 4.5 2.5 4.5 1.4 0 1.9.7 1.9 2.5 0 2 .5 2.5 2.5 2.5 2.3 0 2.5.4 2.5 4.5s.2 4.5 2.5 4.5c2 0 2.5.5 2.5 2.5 0 1.8.5 2.5 1.9 2.5 1.5 0 2 1 2.5 4.5.6 3.6 1.1 4.5 2.7 4.5 1.4 0 1.9.7 1.9 2.5 0 2 .5 2.5 2.5 2.5 2.3 0 2.5.4 2.5 4.5 0 3.8.3 4.5 2 4.5 1.3 0 2 .7 2 1.9 0 1.3.8 2.1 2.3 2.3 1.6.2 2.3 1.1 2.5 3s.9 2.8 2.2 2.8c1.4 0 2 1 2.5 4s1.1 4 2.6 4c1.4 0 1.9.7 1.9 2.5 0 2 .5 2.5 2.5 2.5s2.5.5 2.5 2.5c0 1.8.5 2.5 1.9 2.5 1.5 0 2 1 2.5 4.5.6 3.6 1.1 4.5 2.7 4.5 1.4 0 1.9.7 1.9 2.5 0 2 .5 2.5 2.5 2.5s2.5.5 2.5 2.5c0 1.8.5 2.5 1.9 2.5 1.6 0 2.1.9 2.7 4.5.5 3.5 1 4.5 2.5 4.5 1.4 0 1.9.7 1.9 2.5 0 2 .5 2.5 2.5 2.5s2.5.5 2.5 2.5c0 1.8.5 2.5 1.9 2.5 1.5 0 2.1 1 2.6 4s1.1 4 2.6 4c1.4 0 1.9.7 1.9 2.5 0 2 .5 2.5 2.5 2.5s2.5.5 2.5 2.5c0 1.8.5 2.5 1.9 2.5 1.6 0 2.1.9 2.7 4.5.5 3.5 1 4.5 2.5 4.5 1.4 0 1.9.7 1.9 2.5 0 2 .5 2.5 2.5 2.5s2.5.5 2.5 2.5c0 1.8.5 2.5 2 2.5 1.3 0 2 .7 2 2 0 1.5.7 2 2.5 2 2.3 0 2.5.4 2.5 4.5s.2 4.5 2.5 4.5c2 0 2.5.5 2.5 2.5 0 1.8.5 2.5 1.9 2.5 1.3 0 2.1.8 2.3 2.2a2.8 2.8 0 002.6 2.6c1.9.3 2.2.9 2.2 4.8 0 4 .2 4.4 2.5 4.4 1.8 0 2.5.5 2.5 2 0 1.3.7 2 2 2 1.5 0 2 .7 2 2.5 0 2 .5 2.5 2.5 2.5s2.5.5 2.5 2.5.5 2.5 2.5 2.5 2.5.5 2.5 2.5c0 1.8.5 2.5 1.9 2.5 1.3 0 2.1.8 2.3 2.3.2 1.4 1.1 2.3 2.6 2.5 1.8.3 2.2 1 2.2 4.3 0 3.5.3 3.9 2.5 3.9 2 0 2.5.5 2.5 2.5 0 1.8.5 2.5 2 2.5s2 .7 2 2.5c0 2 .5 2.5 2.5 2.5s2.5.5 2.5 2.5.5 2.5 2.5 2.5c1.8 0 2.5.5 2.5 2 0 1.3.7 2 2 2 1.5 0 2 .7 2 2.5 0 2 .5 2.5 2.5 2.5s2.5.5 2.5 2.5c0 1.8.5 2.5 1.9 2.5 1.3 0 2.1.8 2.3 2.2a2.8 2.8 0 002.6 2.6c1.4.2 2.2 1 2.2 2.3 0 1.4.7 1.9 2.5 1.9 2 0 2.5.5 2.5 2.5 0 1.8.5 2.5 2 2.5 1.3 0 2 .7 2 2 0 1.5.7 2 2.5 2 2 0 2.5.5 2.5 2.5s.5 2.5 2.5 2.5c1.8 0 2.5.5 2.5 1.9 0 1.6.9 2.1 4.5 2.7 3.5.5 4.5 1 4.5 2.5 0 1.4.7 1.9 2.5 1.9 2 0 2.5.5 2.5 2.5 0 2.3.4 2.5 4.5 2.5 3.8 0 4.5.3 4.5 1.9 0 1.5 1 2 5 2.6s5 1.1 5 2.6c0 1.6.7 1.9 4.5 1.9 4.1 0 4.5.2 4.5 2.5 0 2.4.2 2.5 7 2.5 6.3 0 7 .2 7 2 0 1.6.7 2 3.3 2 6.8 0 10.7 1.2 10.7 3.1 0 1.7.9 1.9 8.4 1.9 11.1 0 14.6.7 14.6 3.1 0 1.8 2.1 1.9 65 1.9 62.8 0 65-.1 65-1.9 0-2.3 4-3.1 15.8-3.1 7.3 0 8.2-.2 8.2-1.9 0-1.9 3.9-3.1 10.8-3.1 2.5 0 3.2-.4 3.2-2 0-1.8.7-2 7-2 6.8 0 7-.1 7-2.5s.2-2.5 6.4-2.5c5.9 0 6.5-.2 6.8-2.2s1-2.3 5.1-2.6c3.9-.3 4.7-.6 4.7-2.3 0-1.6.7-1.9 4.5-1.9 4.1 0 4.5-.2 4.5-2.5s.4-2.5 4.5-2.5c3.8 0 4.5-.3 4.5-1.9 0-1.4.8-2.1 2.8-2.3 1.9-.2 2.8-.9 3-2.6.3-1.9.9-2.2 4.8-2.2 4 0 4.4-.2 4.4-2.5 0-2 .5-2.5 2.5-2.5 1.8 0 2.5-.5 2.5-1.9 0-1.5 1-2 4.5-2.5 3.6-.6 4.5-1.1 4.5-2.7s.7-1.9 4.5-1.9c4.1 0 4.5-.2 4.5-2.5 0-2 .5-2.5 2.5-2.5 1.8 0 2.5-.5 2.5-2 0-1.3.7-2 1.9-2 1.3 0 2.1-.8 2.3-2.3.3-1.9 1-2.2 5.1-2.5 4.5-.3 4.7-.2 4.7 2.2 0 2.1.5 2.6 2.5 2.6 1.8 0 2.5.5 2.5 2 0 1.3.7 2 2 2 1.5 0 2 .7 2 2.5 0 2.3.4 2.5 4.4 2.5 3.9 0 4.5.3 4.8 2.3.2 1.4 1.1 2.3 2.6 2.5 1.3.2 2.2 1 2.2 2.2 0 1.3 1.1 1.9 4.5 2.4 3.6.6 4.5 1.1 4.5 2.7 0 1.4.7 1.9 2.5 1.9s2.5.5 2.5 1.9c0 1.6.9 2.1 4.5 2.7 3.5.5 4.5 1 4.5 2.5 0 1.4.7 1.9 2.5 1.9 2 0 2.5.5 2.5 2.5 0 2.3.3 2.5 5 2.5 4.3 0 5 .3 5 1.9s.8 2 4.3 2.3c3.5.2 4.3.7 4.5 2.6.3 1.9.9 2.2 4.8 2.2 4 0 4.4.2 4.4 2.5 0 2.4.2 2.5 7 2.5 6.2 0 7 .2 7 1.9 0 1.5 1 2 5 2.6 4 .5 5 1.1 5 2.5 0 1.6.9 1.9 6.8 2.2 6.1.3 6.7.5 7 2.5.3 2.2.8 2.3 9.3 2.3 8.2 0 8.9.1 8.9 2 0 1.7.7 2 4.8 2 2.6 0 7.7.3 11.5.7 5.4.5 6.7.9 6.7 2.3 0 1.5 2.6 1.7 28 2.3 15.4.4 40.6.4 56 0 25.7-.6 28-.8 28-2.4 0-1.5 1.4-1.8 9.5-2.4 8.4-.7 9.5-1 9.5-2.6 0-1.7.8-1.9 7-1.9s7-.2 7-1.9c0-2 3.4-3.1 9.6-3.1 2.7 0 3.4-.4 3.4-1.9s1-2 5-2.6 5-1.1 5-2.6c0-1.6.7-1.9 4.5-1.9 4.1 0 4.5-.2 4.5-2.5s.4-2.5 4.4-2.5c3.9 0 4.5-.3 4.8-2.2a2.8 2.8 0 012.6-2.6c1.4-.2 2.2-1 2.2-2.3 0-1.6.7-1.9 4.5-1.9 4.1 0 4.5-.2 4.5-2.5 0-2 .5-2.5 2.5-2.5 1.8 0 2.5-.5 2.5-2s.7-2 2.5-2c2 0 2.5-.5 2.5-2.5 0-2.3.4-2.5 4.5-2.5s4.5-.2 4.5-2.5c0-2 .5-2.5 2.5-2.5 1.8 0 2.5-.5 2.5-2 0-1.3.7-2 2-2 1.5 0 2-.7 2-2.5 0-2 .5-2.5 2.5-2.5s2.5-.5 2.5-2.5.5-2.5 2.5-2.5 2.5-.5 2.5-2.5c0-1.8.5-2.5 2-2.5 1.3 0 2-.7 2-2 0-1.5.7-2 2.5-2 2 0 2.5-.5 2.5-2.5s.5-2.5 2.5-2.5c1.8 0 2.5-.5 2.5-1.9 0-1.3.8-2.1 2.3-2.3 1.4-.2 2.3-1.1 2.5-2.6.3-2 .9-2.2 6.8-2.2 6.2 0 6.4-.1 6.4-2.5V969h24v2.5c0 2.3.4 2.5 4.5 2.5s4.5.2 4.5 2.5c0 2 .5 2.5 2.5 2.5 1.8 0 2.5.5 2.5 1.9 0 1.3.8 2.1 2.3 2.3 1.4.2 2.3 1.1 2.5 2.5.2 1.5 1 2.3 2.3 2.3 1.6 0 1.9.7 1.9 4.5 0 4.1.2 4.5 2.5 4.5 2 0 2.5.5 2.5 2.5 0 1.8.5 2.5 1.9 2.5 1.6 0 2.1.9 2.7 4.5.5 3.5 1 4.5 2.5 4.5 1.6 0 1.9.8 1.9 5 0 4.7.2 5 2.5 5 2.4 0 2.5.2 2.5 6.5 0 5.7.2 6.5 1.9 6.5 2.3 0 3.1 4 3.1 15.7 0 7.6.2 8.3 2 8.3s2 .7 2 7c0 6.8.1 7 2.5 7 2 0 2.5.5 2.5 2.5 0 1.8.5 2.5 2 2.5 1.3 0 2 .7 2 2 0 1.5.7 2 2.5 2 2 0 2.5.5 2.5 2.5 0 2.4.2 2.5 7 2.5 6.2 0 7 .2 7 1.9 0 1.6 1.1 1.9 9.5 2.6 8.4.6 9.5.9 9.5 2.6 0 1.8.9 1.9 15.4 1.9 16.7 0 21.6.6 21.6 2.5 0 .7 1.4 1.5 3.1 1.9 1.7.3 33.2.6 70 .6 64.7 0 66.9-.1 66.9-1.9 0-2.4 3.5-3.1 14.6-3.1 7.8 0 8.3-.1 8.6-2.2.2-1.9 1-2.4 4.6-2.6 3.4-.3 4.2-.7 4.2-2.3s.7-1.9 5-1.9c4.7 0 5-.2 5-2.5s.4-2.5 4.5-2.5 4.5-.2 4.5-2.5c0-2 .5-2.5 2.5-2.5 1.8 0 2.5-.5 2.5-2s.7-2 2.5-2 2.5-.5 2.5-1.9c0-1.3.8-2.1 2.3-2.3a2.8 2.8 0 002.5-2.5c.2-1.6 1.2-2.3 4.2-2.8 3.5-.6 3.9-1 4.5-4.6.5-2.9 1.1-3.9 2.6-3.9 1.4 0 1.9-.7 1.9-2.5 0-2 .5-2.5 2.5-2.5s2.5-.5 2.5-2.5c0-1.8.5-2.5 2-2.5s2-.7 2-2.5c0-2 .5-2.5 2.5-2.5 2.3 0 2.5-.4 2.5-4.5s.2-4.5 2.5-4.5c2 0 2.5-.5 2.5-2.5 0-1.8.5-2.5 1.9-2.5 1.6 0 2.1-.9 2.7-4.5.5-3.5 1-4.5 2.5-4.5 1.4 0 1.9-.7 1.9-2.5s.5-2.5 1.9-2.5c1.6 0 2.1-.9 2.7-4.5.5-3.5 1-4.5 2.5-4.5 1.6 0 1.9-.8 1.9-4.5 0-4.1.2-4.5 2.5-4.5s2.5-.3 2.5-5c0-4.3.3-5 1.9-5s2.1-.9 2.7-4.5c.5-3.5 1-4.5 2.5-4.5s1.9-.7 1.9-3.3c0-6.8 1.2-10.7 3.1-10.7 1.6 0 1.9-.8 1.9-4.5 0-3.8.3-4.5 1.9-4.5 1.5 0 2-1 2.6-5 .5-4 1.1-5 2.5-5 1.6 0 1.9-.9 2.2-6.8.3-6.1.5-6.7 2.6-7 1.9-.3 2.2-.9 2.2-4.8 0-3.7.3-4.4 2-4.4 1.6 0 2-.7 2-3.3 0-6.8 1.2-10.7 3.1-10.7 1.7 0 1.9-.8 1.9-7 0-6.8.1-7 2.5-7s2.5-.2 2.5-7c0-6.3.2-7 2-7 1.6 0 2-.7 2-3.3 0-6.8 1.2-10.7 3.1-10.7 1.7 0 1.9-.8 1.9-7 0-6.8.1-7 2.5-7s2.5-.2 2.5-7c0-6.3.2-7 2-7 1.6 0 2-.7 2-3.3 0-6.8 1.2-10.7 3.1-10.7 1.6 0 1.9-.8 1.9-4.5 0-4.1.2-4.5 2.5-4.5 2.4 0 2.5-.2 2.5-7 0-6.2.2-7 1.9-7 1.5 0 2-1 2.6-5s1.1-5 2.6-5c1.6 0 1.9-.7 1.9-4.5 0-4.1.2-4.5 2.5-4.5s2.5-.4 2.5-4.5c0-3.8.3-4.5 2-4.5 1.6 0 2-.7 2-3.3 0-6.8 1.2-10.7 3.1-10.7 1.4 0 1.9-.7 1.9-2.5 0-2 .5-2.5 2.5-2.5 1.8 0 2.5-.5 2.5-2 0-1.3.7-2 1.9-2 2 0 3.1 3.4 3.1 10.1 0 3.2.4 3.9 2 3.9 1.7 0 1.9.8 2.2 6.7.3 6.2.5 6.8 2.6 7.1 2 .3 2.2.9 2.2 6.7s.2 6.4 2.3 6.7c2 .3 2.2.9 2.5 7 .3 5.9.5 6.8 2.2 6.8s1.9.9 2.2 7.3c.3 6.6.5 7.2 2.6 7.5 2 .3 2.2.8 2.2 7.3 0 6.1.2 6.9 1.9 6.9 1.5 0 1.9 1.1 2.5 6.1.3 3.4.6 9.5.6 13.5 0 6.7.2 7.4 2 7.4 1.9 0 2 .7 2 10.9 0 13.6.6 17.1 3.1 17.1 1.8 0 1.9 1.3 1.9 30.5 0 29 .1 30.5 1.8 30.5s1.9 1.4 2.5 18.2c.4 9.9.7 28.8.7 42 0 23.1.1 23.8 2 23.8 1.7 0 2 .7 2 4.6 0 3.7.4 4.7 1.9 5.1 1.3.3 2.2 1.7 2.6 4.3.5 3 1.2 4 2.8 4.2 1.4.2 2.3 1.1 2.5 2.4.2 1.7 1.2 2.3 4.8 2.9 3.5.5 4.4 1 4.4 2.6 0 1.7.7 1.9 7 1.9 6.2 0 7 .2 7 1.9s1.8 1.9 32.9 2.5c18.2.4 42.2.4 53.5 0 19.2-.6 20.6-.8 20.6-2.5 0-1.6.8-1.9 4.5-1.9 4.1 0 4.5-.2 4.5-2.5 0-2 .5-2.5 2.5-2.5 2.4 0 2.5-.2 2.5-7 0-6.3.2-7 2-7s2-.7 2-5.8c0-9.1 1-13.2 3.1-13.2 1.7 0 1.9-1.1 2.1-11.2.3-10.9.4-11.3 2.6-11.6 2.1-.3 2.2-.8 2.2-9.3 0-8.2.1-8.9 2-8.9 1.6 0 2-.7 2-3.8 0-7.3 1.1-11.2 3.1-11.2 1.6 0 1.9-.8 1.9-5.9 0-8.6.9-12.1 3.1-12.1 1.6 0 1.9-.8 1.9-4.5 0-3.8.3-4.5 1.9-4.5 1.5 0 2-1 2.6-5s1.1-5 2.6-5c1.7 0 1.9-.8 1.9-6.4 0-5.9.2-6.5 2.3-6.8 1.6-.2 2.3-1.1 2.5-3.1.2-1.9.9-2.7 2.2-2.7 1.5 0 1.9-.9 2.2-4.3.2-3.4.7-4.3 2.5-4.5 1.8-.3 2.2-1.1 2.5-4.5.2-3.5.7-4.3 2.6-4.5 1.6-.3 2.2-1 2.2-2.8 0-1.7.5-2.4 2-2.4 1.3 0 2-.7 2-2 0-1.4.7-2 2.4-2 2 0 2.5-.6 3-4.5.6-3.6 1.1-4.5 2.7-4.5 1.4 0 1.9-.7 1.9-2.5 0-2 .5-2.5 2.5-2.5 1.8 0 2.5-.5 2.5-2 0-1.3.7-2 2-2 1.4 0 2-.7 2-2.4 0-2 .6-2.5 4.5-3 3.6-.6 4.5-1.1 4.5-2.7 0-1.4.7-1.9 2.5-1.9 2 0 2.5-.5 2.5-2.5s.5-2.5 2.5-2.5c1.8 0 2.5-.5 2.5-1.9 0-1.6.9-2.1 4.5-2.7 3.5-.5 4.5-1 4.5-2.5 0-1.4.7-1.9 2.5-1.9s2.5-.5 2.5-1.9c0-1.6.9-2.1 4.5-2.7 3.4-.5 4.5-1.1 4.5-2.4s1.1-1.9 4.5-2.4c3.6-.6 4.5-1.1 4.5-2.7 0-1.7.7-1.9 6.9-1.9h6.8l.7 3.8c.3 2 .6 5.2.6 6.9 0 2.6.4 3.3 2 3.3 1.8 0 2 .7 2 5.9 0 8.6.9 12.1 3.1 12.1 1.7 0 1.9.9 1.9 9.5s.2 9.5 1.9 9.5c1.5 0 1.9 1.1 2.5 7.7.3 4.2.6 10.5.6 14 0 5.6.2 6.3 2 6.3 1.9 0 2 .7 2 10.9 0 13.6.6 17.1 3.1 17.1 1.7 0 1.9.9 1.9 11.5 0 10.5.2 11.5 1.9 11.5 1.5 0 1.9 1.1 2.5 7.7.3 4.2.6 9.6.6 12 0 3.6.3 4.3 2 4.3 1.9 0 2 .7 2 11.5v11.5h2.5c2.5 0 2.5.1 2.5 9 0 8.2.2 9 1.9 9 1.5 0 2 1 2.6 5s1.1 5 2.6 5c1.6 0 1.9.7 1.9 4.5 0 4.1.2 4.5 2.5 4.5 2 0 2.5.5 2.5 2.5 0 1.8.5 2.5 1.9 2.5 1.3 0 2.1.8 2.3 2.2a2.8 2.8 0 002.6 2.6c1.4.2 2.2 1 2.2 2.3 0 1.4.7 1.9 2.5 1.9 2 0 2.5.5 2.5 2.5 0 2.3.4 2.5 4.5 2.5 3.8 0 4.5.3 4.5 2 0 1.6.7 2 3.3 2 6.8 0 10.7 1.2 10.7 3.1 0 1.8 1.4 1.9 30.5 1.9 29.3 0 30.5-.1 30.5-1.9 0-1.7 1.1-2 9-2.6s9-.9 9-2.6.8-1.9 7-1.9c6.8 0 7-.1 7-2.5 0-2.3.4-2.5 4.4-2.5 3.9 0 4.5-.3 4.8-2.3.2-1.4 1.1-2.3 2.6-2.5 1.4-.2 2.2-1 2.2-2.3 0-1.6.7-1.9 4.4-1.9 3.9 0 4.5-.3 4.8-2.3.2-1.4 1.1-2.3 2.6-2.5 1.4-.2 2.2-1 2.2-2.3 0-1.4.7-1.9 2.5-1.9 2 0 2.5-.5 2.5-2.5 0-2.3.4-2.5 4.5-2.5s4.5-.2 4.5-2.5c0-1.8.5-2.5 1.9-2.5 1.6 0 2.1-.9 2.7-4.5.5-3.9 1-4.5 3-4.5 1.7 0 2.4-.6 2.4-2 0-1.3.7-2 2-2 1.5 0 2-.7 2-2.4 0-1.8.6-2.5 2.3-2.8 1.4-.2 2.3-1.1 2.5-2.6.2-1.4 1-2.2 2.3-2.2 1.6 0 1.9-.7 1.9-4.5 0-4.1.2-4.5 2.5-4.5s2.5-.4 2.5-4.4c0-3.9.3-4.5 2.3-4.8 1.4-.2 2.3-1.1 2.5-2.6.2-1.4 1-2.2 2.3-2.2 1.4 0 1.9-.7 1.9-2.5 0-2 .5-2.5 2.5-2.5s2.5-.5 2.5-2.5.5-2.5 2.5-2.5c1.8 0 2.5-.5 2.5-1.9 0-1.3.8-2.1 2.3-2.3 1.4-.2 2.3-1.1 2.5-2.6.3-2 .9-2.2 6.7-2.2s6.4-.2 6.7-2.3c.3-2.2.6-2.2 15.8-2.5 20-.4 26 .3 26 2.9 0 1.6.7 1.9 5 1.9s5 .3 5 1.9.9 2.1 4.5 2.7c3.5.5 4.5 1 4.5 2.5 0 1.4.7 1.9 2.5 1.9 2 0 2.5.5 2.5 2.5s.5 2.5 2.5 2.5c1.8 0 2.5.5 2.5 2 0 1.3.7 2 2 2 1.5 0 2 .7 2 2.5 0 2 .5 2.5 2.5 2.5s2.5.5 2.5 2.5.5 2.5 2.5 2.5c1.8 0 2.5.5 2.5 2 0 1.3.7 2 2 2 1.5 0 2 .7 2 2.5 0 2 .5 2.5 2.5 2.5s2.5.5 2.5 2.5.5 2.5 2.5 2.5c1.8 0 2.5.5 2.5 1.9 0 1.5 1 2.1 4 2.6s4 1.1 4 2.6c0 1.4.7 1.9 2.5 1.9 2 0 2.5.5 2.5 2.5 0 2.3.4 2.5 4.4 2.5 3.9 0 4.5.3 4.8 2.2a2.8 2.8 0 002.6 2.6c1.4.2 2.2 1 2.2 2.2 0 1.5.9 1.9 4.8 2.2 4 .3 4.7.6 5 2.5.3 2.1.8 2.3 7.3 2.3 6.2 0 6.9.2 6.9 2 0 1.6.7 2 3.3 2 6.8 0 10.7 1.2 10.7 3.1 0 1.7.9 1.9 7.8 1.9 11.2 0 15.2.9 15.2 3.1 0 1.8 1.1 1.9 18.5 1.9 17.8 0 18.5.1 18.5 2s.7 2 18.5 2 18.5-.1 18.5-2c0-2 .7-2 30.5-2 29.1 0 30.5-.1 30.5-1.9 0-2.5 4-3.1 22.3-3.1 13.6 0 14.7-.1 14.7-1.9 0-1.5 1.1-1.9 6.8-2.4 3.7-.4 9.1-.7 12-.7 4.5 0 5.2-.3 5.2-2 0-1.9.7-2 13.5-2 12.5 0 13.5-.1 13.5-1.9 0-2.3 4-3.1 15.8-3.1 7.5 0 8.2-.2 8.2-2 0-1.7.7-2 5.3-2 8.7 0 12.7-1 12.7-3.1 0-1.7.9-1.9 9.5-1.9 9.5 0 9.5 0 9.5-2.5s.1-2.5 9-2.5c8.3 0 9-.1 9-2 0-1.7.7-2 3.9-2 6.7 0 10.1-1.1 10.1-3.1 0-1.7.8-1.9 7.5-1.9s7.5-.2 7.5-1.9c0-2.2 3.5-3.1 12.1-3.1 5.2 0 5.9-.2 5.9-1.9s.8-2 4.8-2.3 4.7-.6 5-2.6.8-2.2 7.3-2.2c6.1 0 6.9-.2 6.9-1.9 0-2 3.4-3.1 10.1-3.1h3.9v6.4c0 9.1-.9 12.6-3.1 12.6-1.8 0-1.9.9-1.9 12 0 11.3-.1 12-2 12-1.8 0-2 .7-2 5.3 0 3-.3 10.2-.7 16-.5 9.5-.8 10.7-2.5 10.7-1.6 0-1.8 1-1.8 11.5v11.5h-5v14.5c0 13.8-.1 14.5-2 14.5-1.8 0-2 .7-2 5.3 0 3-.3 10.2-.7 16-.5 9.5-.8 10.7-2.5 10.7-1.6 0-1.8 1-1.8 11.5v11.5h-5v16c0 15.3-.1 16-2 16-1.8 0-2 .7-2 6.8 0 3.8-.3 10.3-.6 14.5-.6 6.6-1 7.7-2.5 7.7-1.7 0-1.9 1-1.9 11.6 0 10.5-.2 11.6-1.9 12.1-2.5.6-3.1 4.1-3.1 16.9 0 9.7-.1 10.4-2 10.4-1.8 0-2 .7-2 7.8 0 4.4-.3 12.7-.7 18.5l-.6 10.7h51.5c28.3 0 61 .3 72.6.7 19.7.6 21.2.7 21.2 2.5 0 1.7 1.6 1.8 32.5 1.8h32.5v-2.5c0-1.8.5-2.5 1.9-2.5 2.6 0 3.1-4 3.1-24.3 0-16 .1-16.7 2-16.7s2-.7 2-18.3c0-10.1.3-21.8.6-26 .6-6.6 1-7.7 2.5-7.7 1.8 0 1.9-1.4 1.9-28s.1-28 1.9-28c2.4 0 3.1-7.1 3.1-32.3 0-18 .1-18.7 2-18.7s2-.7 2-21.3c0-27.6.7-34.7 3.1-34.7 1.8 0 1.9-1.4 1.9-26.9 0-27.9.4-33.1 2.5-33.1 1.9 0 2.5-5.9 2.5-25.3 0-17 .1-17.7 2-17.7s2-.7 2-19.9c0-22.7.4-26.1 3.1-26.1 1.8 0 1.9-1.2 1.9-23.1 0-21.7.1-23.1 1.9-23.6 2.2-.6 3.1-7.6 3.1-25.6 0-11 .1-11.7 2-11.7s2-.7 2-17.3c0-20.7.5-24.7 3.1-24.7 1.8 0 1.9-1.1 1.9-18.5s.1-18.5 1.9-18.5c2.5 0 3.1-4 3.1-20.3 0-12 .1-12.7 2-12.7s2-.7 2-14.8c0-18.2.6-22.2 3.1-22.2 1.8 0 1.9-1.1 1.9-18.5s.1-18.5 1.9-18.5c2.5 0 3.1-4 3.1-20.3 0-12 .1-12.7 2-12.7s2-.7 2-12.8c0-16.2.6-20.2 3.1-20.2 1.8 0 1.9-1.1 1.9-20.5 0-19.3.1-20.5 1.9-20.5 2.4 0 3.1-5 3.1-22.5 0-16-.6-19.5-3.1-19.5-1.4 0-1.9-.7-1.9-2.5 0-2.3-.4-2.5-4.5-2.5s-4.5-.2-4.5-2.5-.3-2.5-5-2.5c-4.3 0-5-.3-5-1.9s-.9-2.1-4.5-2.7c-3.5-.5-4.5-1-4.5-2.5 0-1.6-.8-1.9-4.5-1.9-4.1 0-4.5-.2-4.5-2.5s-.3-2.5-5-2.5c-4.3 0-5-.3-5-1.9s-.9-2.1-4.5-2.7c-3.5-.5-4.5-1-4.5-2.5 0-1.6-.8-1.9-4.5-1.9-4.1 0-4.5-.2-4.5-2.5s-.3-2.5-5-2.5c-4.3 0-5-.3-5-1.9s-.9-2.1-4.5-2.7c-3.5-.5-4.5-1-4.5-2.5 0-1.6-.8-1.9-4.5-1.9-4.1 0-4.5-.2-4.5-2.5s-.3-2.5-5-2.5c-4.3 0-5-.3-5-2s-.7-2-4.5-2c-4.1 0-4.5-.2-4.5-2.5s-.4-2.5-4.4-2.5c-3.9 0-4.5-.3-4.8-2.3s-.9-2.2-7-2.5c-6-.3-6.8-.5-6.8-2.2 0-1.5-.7-2-2.5-2-2 0-2.5-.5-2.5-2.5 0-2.3-.4-2.5-4.2-2.5-6 0-8.5-.9-9.1-3.1a2.7 2.7 0 00-2.6-1.9c-1.6 0-2.1.6-2.1 2.5 0 2-.5 2.5-2.5 2.5h-2.5v16.1c0 14.9-.1 16.1-1.9 16.6-2.2.6-3.1 7.6-3.1 25 0 10.6-.1 11.3-2 11.3s-2 .7-2 17.7c0 21.3-.5 25.3-3.1 25.3-1.8 0-1.9 1.1-1.9 20.6 0 19.2-.1 20.6-1.9 21.1-2.3.6-3.1 7.7-3.1 30 0 15.6-.1 16.3-2 16.3s-2 .7-2 15.4c0 18.1-.5 21.6-3.1 21.6-1.8 0-1.9.9-1.9 12s-.1 12-1.9 12c-2.3 0-3.1 4-3.1 17.2 0 9.1-.1 9.8-2 9.8-1.8 0-2 .7-2 8.2 0 11.8-.8 15.8-3.1 15.8-1.7 0-1.9.8-1.9 7s-.2 7-1.9 7c-2.1 0-3.1 4-3.1 13.2 0 5.1-.2 5.8-2 5.8s-2 .7-2 5.9c0 8.6-.9 12.1-3.1 12.1-1.6 0-1.9.8-1.9 5 0 4.3-.3 5-2 5-1.6 0-2 .7-2 3.2 0 6.8-1.2 10.8-3.1 10.8-1.5 0-1.9 1-2.1 6.7-.3 6.2-.5 6.8-2.5 7.1s-2.3.9-2.3 4.8c0 3.6-.3 4.4-1.9 4.4-1.5 0-2 1-2.5 4.5-.6 3.4-1.2 4.5-2.5 4.5-1.4 0-2 1.1-2.5 4.5-.6 3.6-1.1 4.5-2.7 4.5-1.4 0-1.9.7-1.9 2.5s-.5 2.5-2 2.5-2 .7-2 2.5c0 2-.5 2.5-2.5 2.5s-2.5.5-2.5 2.5-.5 2.5-2.5 2.5-2.5.5-2.5 2.5c0 1.8-.5 2.5-2 2.5-1.3 0-2 .7-2 2 0 1.5-.7 2-2.4 2-1.8 0-2.5.6-2.8 2.2-.2 1.9-1 2.4-4.5 2.6-3.5.3-4.3.7-4.3 2.3 0 1.4-.7 1.9-2.5 1.9-2 0-2.5.5-2.5 2.5 0 2.3-.3 2.5-5 2.5-4.2 0-5 .3-5 1.9 0 2-3.4 3.1-10.1 3.1-3.2 0-3.9.3-3.9 2 0 1.6-.7 2-3.4 2-6.2 0-9.6 1.1-9.6 3.1 0 1.7-.9 1.9-9.4 1.9-9 0-9.5.1-9.8 2.2-.3 2.2-.8 2.3-9.5 2.6-8.5.2-9.3.4-9.3 2.2s-.7 2-5.9 2c-8.6 0-12.1.9-12.1 3.1 0 1.7-.9 1.9-9.5 1.9s-9.5.2-9.5 1.9c0 2.4-4 3.1-17.7 3.1-9.6 0-10.3.1-10.3 2s-.7 2-11.3 2c-16 0-26.7 1-26.7 2.5 0 1.4-4.4 2.5-9.7 2.5-2.6 0-3.6-.5-4-1.9-.6-2.2-7.1-3.1-22.4-3.1-9.2 0-9.9-.1-9.9-2 0-1.6-.7-2-3.2-2-6.7 0-10.8-1.2-10.8-3 0-1.3-1.1-1.9-4.5-2.4-3.6-.6-4.5-1.1-4.5-2.7 0-1.4-.7-1.9-2.5-1.9s-2.5-.5-2.5-2-.7-2-2.5-2c-2 0-2.5-.5-2.5-2.5s-.5-2.5-2.5-2.5c-1.8 0-2.5-.5-2.5-2 0-1.3-.7-2-2-2-1.5 0-2-.7-2-2.5 0-2-.5-2.5-2.5-2.5s-2.5-.5-2.5-2.5c0-1.8-.5-2.5-2-2.5-1.4 0-2-.7-2-2.1 0-1.2-.8-2.3-2-2.6-1.1-.3-2-1.3-2-2.3s.9-2 2-2.3c1.2-.3 2-1.4 2-2.6 0-1.8.6-2.1 3.9-2.1 6.7 0 10.1-1.1 10.1-3.1 0-1.8 1-1.9 14-1.9s14-.1 14-1.9c0-2.1 4-3.1 12.8-3.1 4.5 0 5.2-.3 5.2-2 0-1.8.7-2 6.9-2 6.5 0 7-.2 7.3-2.3.3-2 .9-2.2 7.1-2.5 5.8-.3 6.7-.6 6.7-2.2 0-1.4 1-2 5-2.5s5-1.1 5-2.5c0-1.6.9-1.9 6.8-2.2 6.1-.3 6.7-.5 7-2.6.3-2 .9-2.2 6.7-2.2s6.4-.2 6.7-2.3c.3-1.9 1-2.2 5.1-2.5 3.9-.3 4.7-.6 4.7-2.3 0-1.6.7-1.9 4.5-1.9 4.1 0 4.5-.2 4.5-2.5s.4-2.5 4.5-2.5c3.8 0 4.5-.3 4.5-1.9 0-1.5 1-2 5-2.6s5-1.1 5-2.6c0-1.6.7-1.9 4.5-1.9 4.1 0 4.5-.2 4.5-2.5s.4-2.5 4.4-2.5c3.9 0 4.5-.3 4.8-2.3.2-1.4 1.1-2.3 2.6-2.5 1.4-.2 2.2-1 2.2-2.3 0-1.6.7-1.9 5-1.9 4.7 0 5-.2 5-2.5s.4-2.5 4.5-2.5 4.5-.2 4.5-2.5c0-2 .5-2.5 2.5-2.5 1.8 0 2.5-.5 2.5-2 0-1.7.7-2 4.5-2 4.1 0 4.5-.2 4.5-2.5 0-2 .5-2.5 2.5-2.5 1.8 0 2.5-.5 2.5-1.9 0-1.5 1-2.1 4-2.6s4-1.1 4-2.6c0-1.3.7-1.9 2.4-1.9 1.8 0 2.5-.6 2.8-2.3.2-1.4 1.1-2.3 2.6-2.5 1.4-.2 2.2-1 2.2-2.3 0-1.4.7-1.9 2.5-1.9 2 0 2.5-.5 2.5-2.5 0-2.3.4-2.5 4.5-2.5s4.5-.2 4.5-2.5c0-2 .5-2.5 2.5-2.5 1.8 0 2.5-.5 2.5-2 0-1.3.7-2 2-2 1.5 0 2-.7 2-2.5 0-2 .5-2.5 2.5-2.5s2.5-.5 2.5-2.5.5-2.5 2.5-2.5c1.8 0 2.5-.5 2.5-2 0-1.3.7-2 2-2 1.5 0 2-.7 2-2.5 0-2 .5-2.5 2.5-2.5s2.5-.5 2.5-2.5.5-2.5 2.5-2.5 2.5-.5 2.5-2.5c0-1.8.5-2.5 1.9-2.5 1.5 0 2.1-1 2.6-4s1.1-4 2.6-4c1.3 0 1.9-.7 1.9-2.4 0-1.8.6-2.5 2.3-2.8 1.4-.2 2.3-1.1 2.5-2.6.2-1.4 1-2.2 2.3-2.2 1.4 0 1.9-.7 1.9-2.5 0-2 .5-2.5 2.5-2.5 2.3 0 2.5-.4 2.5-4.5 0-3.8.3-4.5 1.9-4.5s2.1-.9 2.7-4.5c.5-3.5 1-4.5 2.5-4.5 1.4 0 1.9-.7 1.9-2.5 0-2 .5-2.5 2.5-2.5 2.3 0 2.5-.4 2.5-4.5 0-3.8.3-4.5 2-4.5 1.6 0 2-.7 2-3.3 0-6.7 1.2-10.7 3.1-10.7 1.4 0 1.9-.9 2.1-4.8.3-4 .6-4.7 2.6-5 2.1-.3 2.2-.8 2.2-9.3 0-8.1.2-8.9 1.9-8.9 1.8 0 2-1 2.3-15.5.2-8.5.2-21.1 0-28-.3-11.5-.5-12.5-2.3-12.5-1.7 0-1.9-.8-1.9-7 0-6.3-.2-7-2-7-1.6 0-2.1-.9-2.6-5-.5-3.9-1.1-5-2.5-5-1.3 0-1.9-1.1-2.5-4.5-.5-3.5-1-4.5-2.5-4.5-1.6 0-1.9-.8-1.9-4.5 0-4.1-.2-4.5-2.5-4.5-1.8 0-2.5-.5-2.5-1.9 0-1.3-.8-2.1-2.2-2.3a2.8 2.8 0 01-2.6-2.6c-.2-1.4-1-2.2-2.3-2.2-1.4 0-1.9-.7-1.9-2.5 0-2-.5-2.5-2.5-2.5-1.8 0-2.5-.5-2.5-1.9 0-1.3-.8-2.1-2.2-2.3a2.8 2.8 0 01-2.6-2.6c-.3-1.9-.9-2.2-4.8-2.2-4 0-4.4-.2-4.4-2.5s-.4-2.5-4.5-2.5c-3.8 0-4.5-.3-4.5-1.9 0-1.3-.8-2.1-2.2-2.3a2.8 2.8 0 01-2.6-2.6c-.3-1.8-1-2.2-3.6-2.2-6.2 0-9.6-1.1-9.6-3.1 0-1.6-.8-1.9-5-1.9-4.3 0-5-.3-5-1.9 0-1.5-1-2-5-2.6s-5-1.1-5-2.6c0-1.7-.8-1.9-6.6-1.9-5.6 0-6.7-.3-7.1-1.9-.6-2.4-3.1-3.1-11.5-3.1-6.1 0-6.8-.2-6.8-2s-.7-2-5.7-2c-9.3 0-13.3-1-13.3-3.1 0-1.8-1.1-1.9-17.4-1.9-18.6 0-23.6-.5-23.6-2.5 0-1.9-5.8-2.5-24.8-2.5-16.1 0-17.4.1-17.9 1.9-.6 2.4-7.1 3.1-29.4 3.1-15.8 0-16.9.1-16.9 1.9 0 1.5-1.1 1.9-7.7 2.5-4.2.3-9.6.6-12 .6-3.6 0-4.3.3-4.3 2 0 1.9-.7 2-11.5 2-10.6 0-11.5.2-11.5 1.9 0 2.2-3.5 3.1-12.1 3.1-5.1 0-5.9.3-5.9 1.9 0 1.9-3.9 3.1-10.7 3.1-2.6 0-3.3.4-3.3 2 0 1.7-.7 2-5 2-4.7 0-5 .2-5 2.5 0 2.4-.2 2.5-6.4 2.5-5.9 0-6.5.2-6.8 2.2-.2 1.5-1.1 2.4-2.5 2.6-1.5.2-2.3 1-2.3 2.3 0 1.6-.7 1.9-5 1.9-4.7 0-5 .2-5 2.5s-.4 2.5-4.5 2.5c-3.8 0-4.5.3-4.5 1.9 0 1.3-.8 2.1-2.2 2.3-1.5.2-2.4 1.1-2.6 2.5-.3 2-.9 2.3-4.8 2.3-4 0-4.4.2-4.4 2.5 0 2-.5 2.5-2.5 2.5-1.8 0-2.5.5-2.5 2 0 1.3-.7 2-2 2-1.5 0-2 .7-2 2.5 0 2.3-.4 2.5-4.5 2.5s-4.5.2-4.5 2.5c0 2-.5 2.5-2.5 2.5s-2.5.5-2.5 2.5c0 1.8-.5 2.5-2 2.5-1.3 0-2 .7-2 2 0 1.5-.7 2-2.5 2-2 0-2.5.5-2.5 2.5s-.5 2.5-2.4 2.5c-2 0-2.5.6-3 4.5-.6 3.6-1.1 4.5-2.7 4.5-1.2 0-1.9.7-1.9 2s-.7 2-2 2c-1.5 0-2 .7-2 2.5 0 2-.5 2.5-2.5 2.5s-2.5.5-2.5 2.5-.5 2.5-2.5 2.5-2.5.5-2.5 2.5c0 1.8-.5 2.5-1.9 2.5-1.6 0-2 .8-2.3 4.2-.2 3.6-.7 4.4-2.5 4.6-1.7.3-2.3 1-2.3 2.8 0 1.9-.5 2.4-2.5 2.4s-2.5.5-2.5 2.5c0 1.8-.5 2.5-1.9 2.5-1.6 0-2 .8-2.3 4.2-.2 3.6-.7 4.4-2.5 4.6-1.7.3-2.3 1-2.3 2.8 0 1.7-.6 2.4-1.9 2.4-1.6 0-2.1.9-2.7 4.5-.5 3.4-1.1 4.5-2.4 4.5s-1.9 1.1-2.4 4.5c-.6 3.6-1.1 4.5-2.7 4.5-1.4 0-1.9.7-1.9 2.5s-.5 2.5-1.9 2.5c-1.6 0-2.1.9-2.7 4.5-.5 3.5-1 4.5-2.5 4.5-1.6 0-1.9.8-1.9 4.5 0 4.1-.2 4.5-2.5 4.5s-2.5.3-2.5 5c0 4.3-.3 5-1.9 5s-2.1.9-2.7 4.5c-.5 3.5-1 4.5-2.5 4.5-1.6 0-1.9.8-1.9 4.5 0 4.1-.2 4.5-2.5 4.5-2.4 0-2.5.2-2.5 7 0 6.2-.2 7-1.9 7-1.5 0-2 1-2.6 5s-1.1 5-2.6 5c-1.6 0-1.9.7-1.9 4.5 0 4.1-.2 4.5-2.5 4.5-2.4 0-2.5.2-2.5 7 0 6.3-.2 7-2 7-1.6 0-2 .7-2 3.2 0 6.8-1.2 10.8-3.1 10.8-1.5 0-1.9 1-2.1 6.7-.3 6.2-.5 6.8-2.5 7.1-2.1.3-2.3.8-2.3 7.3 0 6.2-.2 6.9-2 6.9-1.6 0-2 .7-2 3.2 0 6.9-1.2 10.8-3.1 10.8-1.5 0-1.9.7-1.9 3.4 0 6.2-1.1 9.6-3.1 9.6-1.6 0-1.9.8-1.9 5s-.3 5-1.9 5c-1.5 0-2 1-2.5 4.5-.6 3.5-1.1 4.5-2.6 4.5s-1.9.9-2.2 4.7c-.3 4.1-.6 4.8-2.5 5.1-2 .3-2.3.9-2.3 4.8 0 4-.2 4.4-2.5 4.4-2 0-2.5.5-2.5 2.5 0 1.8-.5 2.5-1.9 2.5-1.6 0-2 .8-2.3 4.2-.2 3.6-.7 4.4-2.5 4.6-1.7.3-2.3 1-2.3 2.8 0 1.7-.6 2.4-1.9 2.4s-2.1.8-2.3 2.3a2.8 2.8 0 01-2.5 2.5c-1.5.2-2.3 1-2.3 2.3 0 1.2-.7 1.9-1.9 1.9-1.6 0-2.1.9-2.6 4.4-.6 3.6-1.2 4.6-2.9 4.8-1.3.2-2.2 1.1-2.4 2.6-.3 1.6-1 2.2-2.8 2.2-1.7 0-2.4.5-2.4 2 0 1.3-.7 2-2 2-1.4 0-2 .7-2 2.4 0 2-.6 2.5-4.5 3-3.6.6-4.5 1.1-4.5 2.7 0 1.4-.7 1.9-2.5 1.9-2 0-2.5.5-2.5 2.5 0 1.8-.5 2.5-2 2.5-1.3 0-2 .7-2 2 0 1.5-.7 2-2.5 2-2 0-2.5.5-2.5 2.5 0 2.3-.3 2.5-5 2.5-4.2 0-5 .3-5 1.9 0 2-3.4 3.1-9.6 3.1-2.7 0-3.4.4-3.4 2 0 1.9-.7 2-10 2s-10-.1-10-2c0-1.6-.7-2-3.4-2-6.2 0-9.6-1.1-9.6-3.1 0-1.4-.7-1.9-2.5-1.9-2 0-2.5-.5-2.5-2.5s-.5-2.5-2.5-2.5c-1.8 0-2.5-.5-2.5-2 0-1.3-.7-2-1.9-2-1.5 0-2-1-2.5-4.5-.6-3.6-1.1-4.5-2.7-4.5-1.4 0-1.9-.7-1.9-3s-.5-3-1.9-3c-1.5 0-2.1-1-2.6-4s-1.1-4-2.6-4c-1.6 0-1.9-.7-1.9-5 0-4.7-.2-5-2.5-5s-2.5-.3-2.5-5c0-4.2-.3-5-1.9-5-2 0-3.1-3.4-3.1-9.6 0-2.7-.4-3.4-2-3.4-1.9 0-2-.7-2-9.5 0-9.5 0-9.5-2.5-9.5h-2.5v-79h2.5c2.5 0 2.5 0 2.5-9.5 0-8.6.2-9.5 1.9-9.5s1.9-1.2 2.6-13.5c.4-7.5.4-18.1 0-23.5-.6-8.9-.9-10-2.6-10s-1.9-.8-1.9-6.5c0-6.3-.1-6.5-2.5-6.5-2 0-2.5-.5-2.5-2.5 0-1.8-.5-2.5-2-2.5s-2-.7-2-2.5c0-2-.5-2.5-2.5-2.5s-2.5-.5-2.5-2.5c0-1.8-.5-2.5-2-2.5-1.3 0-2-.7-2-2 0-1.5-.7-2-2.4-2-1.8 0-2.5-.6-2.8-2.3a2.8 2.8 0 00-2.5-2.5c-1.5-.2-2.3-1-2.3-2.3 0-1.5-.7-1.9-3.2-1.9-6.9 0-10.8-1.2-10.8-3.1 0-1.8-1.4-1.9-30.5-1.9s-30.5.1-30.5 1.9c0 2.1-4 3.1-12.7 3.1-4.5 0-5.3.3-5.3 1.9 0 1.5-1 2-4.5 2.5-3.6.6-4.5 1.1-4.5 2.7s-.7 1.9-4.4 1.9c-3.9 0-4.5.3-4.8 2.2-.2 1.5-1.1 2.4-2.5 2.6-1.5.2-2.3 1-2.3 2.3s-.7 1.9-2.2 1.9c-4.1 0-6.6 1.1-7.1 3.1a2.7 2.7 0 01-2.6 1.9c-1.4 0-2.1.6-2.1 1.9 0 1.5-1 2-5 2.6-3.9.5-5 1.1-5 2.5 0 1.2-.8 2-2.2 2.2-1.5.2-2.4 1.1-2.6 2.5-.3 2-.9 2.3-4.8 2.3-4 0-4.4.2-4.4 2.5s-.4 2.5-4.5 2.5c-3.7 0-4.5.3-4.5 1.9 0 1.5-1 2-4.5 2.5-3.6.6-4.5 1.1-4.5 2.7s-.7 1.9-5 1.9-5 .3-5 1.9c0 1.5-1 2-5 2.6-7.2 1-13-.2-13-2.6 0-1.4-.7-1.9-2.6-1.9-1.7 0-2.8-.6-3.1-1.9a3.6 3.6 0 00-2.4-2.4c-1.3-.3-1.9-1.4-1.9-3.1 0-1.9-.5-2.6-1.9-2.6-2.2 0-3.1-3.5-3.1-12.1 0-5.2-.2-5.9-2-5.9-1.9 0-2-.8-2.2-37.3l-.3-37.2-2.2-.3c-2-.3-2.3-.9-2.3-4.8 0-3.7-.3-4.4-1.9-4.4s-2.1-.9-2.7-4.5c-.5-3.5-1-4.5-2.5-4.5-1.4 0-1.9-.7-1.9-2.5 0-2-.5-2.5-2.5-2.5-1.8 0-2.5-.5-2.5-1.9 0-1.3-.8-2.1-2.2-2.3-1.5-.2-2.4-1.1-2.6-2.5-.3-1.8-1.2-2.3-4.8-2.9-3.4-.5-4.4-1-4.4-2.5 0-1.4-.7-1.9-2.5-1.9s-2.5-.5-2.5-1.9c0-1.6-.9-2.1-4.5-2.7-3.5-.5-4.5-1-4.5-2.5 0-1.6-.8-1.9-4.5-1.9-4.1 0-4.5-.2-4.5-2.5 0-2.5-.1-2.5-9-2.5-8.3 0-9-.1-9-2s-.7-2-10-2-10 .1-10 2-.7 2-9 2c-8.2 0-9 .2-9 1.9 0 1.6-.9 2.1-4.5 2.7-3.4.5-4.5 1.1-4.5 2.4s-1.1 1.9-4.5 2.4c-3.6.6-4.5 1.1-4.5 2.7 0 1.4-.7 1.9-3 1.9s-3 .5-3 1.9c0 1.5-1 2.1-4 2.6s-4 1.1-4 2.6c0 1.4-.7 1.9-2.5 1.9-2 0-2.5.5-2.5 2.5 0 2.3-.4 2.5-4.5 2.5s-4.5.2-4.5 2.5c0 2-.5 2.5-2.5 2.5-1.8 0-2.5.5-2.5 2s-.7 2-2.5 2c-2 0-2.5.5-2.5 2.5 0 2.3-.4 2.5-4.5 2.5s-4.5.2-4.5 2.5c0 2-.5 2.5-2.5 2.5-1.8 0-2.5.5-2.5 1.9 0 1.3-.8 2.1-2.2 2.3-1.5.2-2.4 1.1-2.6 2.5-.3 2-.9 2.3-4.8 2.3-4 0-4.4.2-4.4 2.5 0 1.8-.5 2.5-2 2.5-1.3 0-2 .7-2 2 0 1.5-.7 2-2.6 2-1.7 0-2.8.6-3.1 2-.4 1.4-1.7 2.2-4.4 2.6-2.9.5-3.9 1.2-4.1 2.8a2.8 2.8 0 01-2.5 2.4c-1.5.2-2.3 1-2.3 2.3 0 1.4-.7 1.9-2.5 1.9-2 0-2.5.5-2.5 2.5 0 2.3-.4 2.5-4.5 2.5s-4.5.2-4.5 2.5c0 2-.5 2.5-2.5 2.5-1.8 0-2.5.5-2.5 1.9 0 1.3-.8 2.1-2.2 2.3-1.5.2-2.4 1.1-2.6 2.5-.3 1.9-1 2.3-4.2 2.3s-3.9.4-4.2 2.2c-.2 1.5-1.1 2.4-2.5 2.6-1.5.2-2.3 1-2.3 2.3 0 1.4-.7 1.9-2.5 1.9-2 0-2.5.5-2.5 2.5 0 2.3-.4 2.5-4.4 2.5-2.5 0-4.7-.4-5-.9-.4-.5-.3-8.8.1-18.5.6-16.2.8-17.6 2.5-17.6s1.8-1.3 1.8-21c0-19.8.1-21 1.9-21 2.7 0 3.1-3.9 3.1-31.8 0-23.5.1-24.2 2-24.2 1.5 0 2-.7 2-2.5 0-2.3-.4-2.5-4-2.5-3.3 0-4-.3-4-1.9 0-1.5-1-2-5-2.6s-5-1.1-5-2.6c0-1.7-.8-1.9-7-1.9-6.8 0-7-.1-7-2.5s-.2-2.5-7-2.5c-6.2 0-7-.2-7-1.9 0-1.5-1-2-4.5-2.5-3.6-.6-4.5-1.1-4.5-2.7 0-1.7-.7-1.9-7-1.9-6.8 0-7-.1-7-2.5s-.2-2.5-7-2.5c-6.2 0-7-.2-7-1.9 0-1.5-1-2-5-2.6s-5-1.1-5-2.6c0-1.7-.8-1.9-6.4-1.9-5.9 0-6.5-.2-6.8-2.3-.3-2-.9-2.2-7-2.5-5.9-.3-6.8-.6-6.8-2.2 0-1.4-1-2-5-2.5-4-.6-5-1.1-5-2.6 0-1.7-.8-1.9-7-1.9-6.8 0-7-.1-7-2.5s-.2-2.5-7-2.5c-6.2 0-7-.2-7-1.9 0-1.5-1-2-4.5-2.5-3.6-.6-4.5-1.1-4.5-2.7 0-1.4-.7-1.9-2.5-1.9-2.3 0-2.5.4-2.5 4.5 0 3.8-.3 4.5-2 4.5-2 0-2 .7-2 149.3 0 82.2-.3 155.5-.7 163-.5 12.4-.8 13.7-2.4 13.7-1.7 0-1.9 1.4-2.1 18.7-.3 18.6-.3 18.8-2.5 19.1-2.3.3-2.3.6-2.3 13.8 0 12.7-.1 13.4-2 13.4-1.8 0-2 .7-2 6.4 0 9.1-.9 12.6-3.1 12.6-1.7 0-1.9.8-1.9 7.1 0 6.1-.3 7.2-1.9 7.6-2.2.6-3.1 4.1-3.1 12.4 0 5.2-.2 5.9-1.9 5.9s-2 .8-2.3 4.8-.6 4.7-2.5 5c-2.1.3-2.3.9-2.3 6.8 0 6.2-.1 6.4-2.5 6.4-2.3 0-2.5.3-2.5 5 0 4.3-.3 5-2 5s-2 .7-2 4.5c0 4.1-.2 4.5-2.5 4.5s-2.5.4-2.5 4.5c0 3.8-.3 4.5-1.9 4.5-1.3 0-2.1.8-2.3 2.2-.2 1.5-1.1 2.4-2.4 2.6-1.7.2-2.3 1.2-2.9 4.8-.5 3.5-1 4.4-2.6 4.4-1.4 0-1.9.7-1.9 2.5 0 2-.5 2.5-2.5 2.5-1.8 0-2.5.5-2.5 1.9 0 1.3-.8 2.1-2.2 2.3-1.5.2-2.4 1.1-2.6 2.5-.3 2-.9 2.3-4.8 2.3-4 0-4.4.2-4.4 2.5 0 2.4-.2 2.5-7 2.5-6.2 0-7 .2-7 1.9 0 1.4-1 2-3.7 2.5-4.9.8-26.9.8-35.5-.1-5.7-.5-6.8-.9-6.8-2.4 0-1.7-.8-1.9-6.9-1.9-6.5 0-7-.2-7.3-2.3-.3-2-.9-2.2-7-2.5-5.8-.2-6.8-.6-6.8-2.1 0-1.4-1-2-4.5-2.5-3.6-.6-4.5-1.1-4.5-2.7 0-1.4-.7-1.9-3-1.9s-3-.5-3-1.9c0-1.6-.9-2.1-4.5-2.7-3.4-.5-4.5-1.1-4.5-2.4 0-1.2-.9-2-2.2-2.2-1.5-.2-2.4-1.1-2.6-2.5-.2-1.6-1.2-2.3-4.2-2.8-2.6-.4-4-1.3-4.3-2.6a2.7 2.7 0 00-2.5-1.9c-1.7 0-2.2-.9-2.8-4.5-.5-3.5-1-4.5-2.5-4.5-1.4 0-1.9-.7-1.9-2.5 0-2-.5-2.5-2.5-2.5-2.3 0-2.5-.4-2.5-4.5 0-3.8-.3-4.5-2-4.5-1.8 0-2-.7-2-7 0-6.8-.1-7-2.5-7h-2.5v-13.9c0-13.7 0-14 2.3-14.3 2.2-.3 2.2-.4 2.5-21.1.2-19.8.3-20.7 2.2-20.7s2-.9 2.2-18.8c.3-18.5.3-18.7 2.6-19 2.2-.3 2.2-.5 2.2-16.3 0-14.9.1-15.9 1.9-15.9 2.4 0 3.1-4 3.1-17.8 0-9.5.1-10.2 2-10.2 1.8 0 2-.7 2-8.4 0-11.1.7-14.6 3.1-14.6 1.7 0 1.9-.9 1.9-9.5s.2-9.5 1.9-9.5c2.2 0 3.1-3.5 3.1-12.6 0-5.7.2-6.4 2-6.4 1.7 0 1.9-.8 2.2-6.8.3-6.1.5-6.7 2.6-7s2.2-.8 2.2-9.2.1-8.9 2.3-9.2c2-.3 2.2-.9 2.5-7.6.3-6.4.5-7.2 2.2-7.2s2-.7 2-5.4c0-8.1.9-11.6 3.1-11.6 1.7 0 1.9-.8 1.9-7.5 0-6.6.2-7.5 1.9-7.5 1.5 0 1.9-1.1 2.5-7.7.3-4.2.6-9.3.6-11.5V564h-5c-4.3 0-5-.3-5-1.9s-.9-2.1-4.5-2.7c-3.4-.5-4.5-1.1-4.5-2.5s-.9-1.8-4.7-2.1c-4.1-.3-4.8-.6-5.1-2.6s-.9-2.2-6.8-2.2c-5.6 0-6.4-.2-6.4-1.9 0-1.5-1-2-5-2.6s-5-1.1-5-2.6c0-1.6-.7-1.9-4.5-1.9-4.1 0-4.5-.2-4.5-2.5 0-2.4-.2-2.5-7-2.5-6.2 0-7-.2-7-1.9 0-1.5-1-2-4.5-2.5-3.6-.6-4.5-1.1-4.5-2.7s-.7-1.9-5-1.9c-4.7 0-5-.2-5-2.5 0-2.4-.2-2.5-6.5-2.5-5.7 0-6.5-.2-6.5-1.9 0-1.5-1-2-5-2.6s-5-1.1-5-2.6c0-1.6-.7-1.9-4.5-1.9-4.1 0-4.5-.2-4.5-2.5 0-2.4-.2-2.5-7-2.5-6.2 0-7-.2-7-1.9 0-1.5-1-2-4.5-2.5-3.6-.6-4.5-1.1-4.5-2.7s-.7-1.9-5-1.9c-4.7 0-5-.2-5-2.5 0-2.4-.2-2.5-7-2.5-6.3 0-7-.2-7-1.9 0-1.6-.9-2.1-4.5-2.7-3.4-.5-4.5-1.1-4.5-2.5s-.9-1.8-4.7-2.1c-4.1-.3-4.8-.6-5.1-2.6s-.9-2.2-6.8-2.2h-6.4v12.9c0 15.6-.6 19.1-3.1 19.1-1.6 0-1.9.8-1.9 5 0 4.7-.2 5-2.5 5-1.8 0-2.5-.5-2.5-1.9 0-1.3-.8-2.1-2.2-2.3a2.8 2.8 0 01-2.6-2.6c-.2-1.4-1-2.2-2.3-2.2-1.4 0-1.9-.7-1.9-2.5 0-2-.5-2.5-2.5-2.5-1.8 0-2.5-.5-2.5-1.9 0-1.6-.9-2.1-4.5-2.7-3.5-.5-4.5-1-4.5-2.5 0-1.4-.7-1.9-2.5-1.9-2 0-2.5-.5-2.5-2.5 0-2.3-.4-2.5-4.5-2.5s-4.5-.2-4.5-2.5c0-2-.5-2.5-2.5-2.5-1.8 0-2.5-.5-2.5-2 0-1.7-.7-2-4.5-2-4.1 0-4.5-.2-4.5-2.5 0-2.5-.1-2.5-9-2.5-8.1 0-9-.2-9-1.8 0-1.7-1.2-2-11.2-2.5-14.5-.9-32.9-.9-50.1 0-12.4.5-13.7.8-13.7 2.5 0 1.6-1 1.8-12 1.8h-12v2.5c0 2.5-.1 2.5-9 2.5-8.1 0-9 .2-9 1.9 0 1.9-3.9 3.1-10.7 3.1-2.6 0-3.3.4-3.3 2 0 1.8-.7 2-7 2-6.2 0-7 .2-7 1.9 0 2-3.4 3.1-10.1 3.1-3.1 0-3.9.4-3.9 1.9 0 1.9-3.9 3.1-10.7 3.1-2.6 0-3.3.4-3.3 2 0 1.7-.7 2-4.4 2-3.9 0-4.5.3-4.8 2.2-.3 2-1 2.3-5 2.6-3.9.3-4.8.7-4.8 2.1s-1.1 2-4.5 2.5c-3.6.6-4.5 1.1-4.5 2.7s-.7 1.9-5 1.9-5 .3-5 1.9-.9 2.1-4.5 2.7c-3.4.5-4.5 1.1-4.5 2.5 0 1.3-1.1 1.9-4.5 2.5-3.5.5-4.5 1-4.5 2.5 0 1.6-.8 1.9-4.5 1.9-4.1 0-4.5.2-4.5 2.5 0 2-.5 2.5-2.5 2.5-1.8 0-2.5.5-2.5 2s-.7 2-2.5 2c-2 0-2.5.5-2.5 2.5 0 2.3-.4 2.5-4.5 2.5s-4.5.2-4.5 2.5c0 2-.5 2.5-2.5 2.5-1.8 0-2.5.5-2.5 1.9 0 1.3-.8 2.1-2.2 2.3-1.5.2-2.4 1.1-2.6 2.5-.3 1.9-1 2.3-4.3 2.3-3.5 0-3.9.3-3.9 2.5 0 2-.5 2.5-2.4 2.5-1.8 0-2.5.6-2.8 2.2-.2 1.5-1.1 2.4-2.5 2.6-1.5.2-2.3 1-2.3 2.3 0 1.2-.7 1.9-1.9 1.9-1.3 0-2.1.8-2.3 2.2-.2 1.5-1.1 2.4-2.5 2.6s-2.3 1.1-2.5 2.5-1.1 2.3-2.5 2.5c-1.5.2-2.3 1-2.3 2.3 0 1.2-.7 1.9-1.9 1.9-1.5 0-2 1-2.5 4.5-.6 3.6-1.1 4.5-2.7 4.5-1.4 0-1.9.7-1.9 2.5 0 2-.5 2.5-2.5 2.5s-2.5.5-2.5 2.5c0 1.8-.5 2.5-1.9 2.5-1.6 0-2.1.9-2.7 4.5-.5 3.5-1 4.5-2.5 4.5-1.4 0-1.9.7-1.9 2.5 0 2-.5 2.5-2.5 2.5-2.3 0-2.5.4-2.5 4.5 0 3.8-.3 4.5-2 4.5s-2 .7-2 4.5c0 4.1-.2 4.5-2.4 4.5-2.3 0-2.5.5-2.8 4.7-.3 4.1-.6 4.8-2.5 5.1-2.1.3-2.3.9-2.3 6.8 0 5.7-.2 6.4-2 6.4-1.7 0-2 .7-2 3.9 0 6.7-1.1 10.1-3.1 10.1-1.7 0-1.9.8-1.9 6.4 0 9.1-.9 12.6-3.1 12.6-1.8 0-1.9 1-1.9 16.5 0 15.8-.1 16.5-2 16.5-2 0-2 .7-2 43.4 0 23.8-.3 44.8-.6 46.5-.5 2.1-1.2 3.1-2.5 3.1-1.7 0-1.9.9-1.9 11.5V848h-2.5c-2.3 0-2.5.3-2.5 5 0 4.3-.3 5-1.9 5s-2 .8-2.3 4.2c-.2 3.6-.7 4.4-2.5 4.6-1.7.3-2.3 1-2.3 2.8 0 1.7-.6 2.4-1.9 2.4-1.6 0-2.1.9-2.7 4.5-.5 3.9-1 4.5-3 4.5-1.7 0-2.4.6-2.4 2 0 1.3-.7 2-2 2-1.5 0-2 .7-2 2.5 0 2-.5 2.5-2.5 2.5s-2.5.5-2.5 2.5c0 2.3-.4 2.5-4.5 2.5s-4.5.2-4.5 2.5c0 2-.5 2.5-2.5 2.5-1.8 0-2.5.5-2.5 1.9 0 1.5-1 2-4.5 2.5-3.6.6-4.5 1.1-4.5 2.7 0 1.4-.7 1.9-2.5 1.9s-2.5.5-2.5 1.9c0 1.6-.9 2.1-4.5 2.7-3.5.5-4.5 1-4.5 2.5s-.7 1.9-3.9 1.9c-6.7 0-10.1 1.1-10.1 3.1 0 1.7-.8 1.9-7 1.9s-7 .2-7 1.9c0 2.5-4 3.1-23.5 3.1s-23.5-.6-23.5-3.1c0-1.7-.8-1.9-7-1.9-6.8 0-7-.1-7-2.5 0-2.3-.4-2.5-4.5-2.5-3.7 0-4.5-.3-4.5-1.9 0-1.5-1-2-4.5-2.5-3.6-.6-4.5-1.1-4.5-2.7 0-1.4-.7-1.9-2.5-1.9-2 0-2.5-.5-2.5-2.5s-.5-2.5-2.5-2.5c-1.8 0-2.5-.5-2.5-1.9 0-1.3-.8-2.1-2.2-2.3a2.8 2.8 0 01-2.6-2.6c-.2-1.4-1-2.2-2.3-2.2-1.2 0-1.9-.7-1.9-2 0-1.5-.7-2-2.5-2-2 0-2.5-.5-2.5-2.4 0-1.8-.6-2.5-2.2-2.8-1.5-.2-2.4-1.1-2.6-2.5-.2-1.6-1.2-2.3-4.3-2.8-3.6-.6-4-1-4.5-4.5-.5-3-1.1-4-2.8-4.2a2.8 2.8 0 01-2.4-2.5c-.2-1.5-1-2.3-2.3-2.3-1.2 0-1.9-.7-1.9-1.9 0-1.3-.8-2.1-2.2-2.3a2.8 2.8 0 01-2.6-2.6c-.2-1.4-1-2.2-2.3-2.2-1.4 0-1.9-.7-1.9-2.5 0-2-.5-2.5-2.5-2.5s-2.5-.5-2.5-2.5c0-1.8-.5-2.5-1.9-2.5-1.6 0-2.1-.9-2.7-4.5-.5-3.9-1-4.5-3-4.5-1.7 0-2.4-.6-2.4-2 0-1.3-.7-2-2-2-1.5 0-2-.7-2-2.4 0-1.8-.6-2.5-2.2-2.8a2.8 2.8 0 01-2.6-2.6c-.2-1.4-1-2.2-2.3-2.2-1.4 0-1.9-.7-1.9-2.5s-.5-2.5-1.9-2.5c-1.6 0-2.1-.9-2.7-4.5-.5-3.9-1-4.5-3-4.5-1.9 0-2.4-.5-2.4-2.5 0-1.8-.5-2.5-1.9-2.5-1.3 0-2.1-.8-2.3-2.3a2.8 2.8 0 00-2.5-2.5c-1.9-.3-2.3-1-2.3-4.2s-.4-3.9-2.2-4.2a2.8 2.8 0 01-2.6-2.6c-.2-1.4-1-2.2-2.3-2.2-1.4 0-1.9-.7-1.9-2.5 0-2-.5-2.5-2.5-2.5-2.3 0-2.5-.4-2.5-4.4 0-3.9-.3-4.5-2.2-4.8a2.8 2.8 0 01-2.6-2.6c-.2-1.3-1-2.2-2.2-2.2-1.3 0-1.9-1.1-2.4-4.5-.6-3.6-1.1-4.5-2.7-4.5-1.4 0-1.9-.7-1.9-2.5 0-2-.5-2.5-2.5-2.5-2.3 0-2.5-.4-2.5-4.5 0-3.8-.3-4.5-2-4.5-1.5 0-2-.7-2-2.5 0-2-.5-2.5-2.5-2.5-2.3 0-2.5-.4-2.5-4.4 0-3.9-.3-4.5-2.2-4.8a2.8 2.8 0 01-2.6-2.6c-.2-1.4-1-2.2-2.3-2.2-1.6 0-1.9-.7-1.9-4.5 0-4.1-.2-4.5-2.5-4.5s-2.5-.4-2.5-4.4c0-3.9-.3-4.5-2.2-4.8a2.8 2.8 0 01-2.6-2.6c-.2-1.4-1-2.2-2.3-2.2-1.6 0-1.9-.7-1.9-4.5 0-4.1-.2-4.5-2.5-4.5s-2.5-.3-2.5-5-.2-5-2.5-5-2.5-.4-2.5-4.5c0-3.8-.3-4.5-2-4.5-1.5 0-2-.7-2-2.5 0-2-.5-2.5-2.5-2.5-2.3 0-2.5-.4-2.5-4.5 0-3.7-.3-4.5-1.9-4.5-1.5 0-2-1-2.5-4.5-.6-3.6-1.1-4.5-2.7-4.5s-1.9-.7-1.9-4.4c0-3.9-.3-4.5-2.2-4.8-2-.3-2.3-1-2.6-5.1-.3-4.2-.5-4.7-2.8-4.7-1.9 0-2.4-.5-2.4-2.5 0-1.8-.5-2.5-2-2.5-1.7 0-2-.7-2-4.5 0-4.1-.2-4.5-2.5-4.5s-2.5-.4-2.5-4.5c0-3.7-.3-4.5-1.9-4.5-1.5 0-2-1-2.5-4.5-.6-3.6-1.1-4.5-2.7-4.5s-1.9-.7-1.9-5c0-4.7-.1-5-2.6-5-2.6 0-2.6-.2-2-4.2.4-2.3.9-4.4 1.1-4.6s3.1-.6 6.4-.9c5.1-.5 6.1-.9 6.1-2.4 0-1.7.8-1.9 6.9-1.9 6.5 0 7-.2 7.3-2.3.3-2 .9-2.2 7.1-2.5 5.7-.2 6.7-.6 6.7-2.1 0-1.9 4-3.1 10.8-3.1 2.5 0 3.2-.4 3.2-2 0-1.8.7-2 7-2 6.8 0 7-.1 7-2.5s.2-2.5 6.9-2.5c6.5 0 7-.2 7.3-2.3.2-1.8 1-2.3 4.6-2.5 3.4-.3 4.2-.7 4.2-2.3s.7-1.9 5-1.9c4.2 0 5-.3 5-1.9 0-2 3.4-3.1 10.1-3.1 3.5 0 3.9-.3 3.9-2.5 0-2.3.4-2.5 4.5-2.5 3.8 0 4.5-.3 4.5-2s.7-2 4.4-2c3.9 0 4.5-.3 4.8-2.3.3-1.9 1-2.2 5.1-2.5 3.8-.3 4.7-.7 4.7-2.2s1-2 4.5-2.6c3.5-.5 4.5-1 4.5-2.5 0-1.6.8-1.9 4.5-1.9 4.1 0 4.5-.2 4.5-2.5s.4-2.5 4.4-2.5c3.9 0 4.5-.3 4.8-2.3.2-1.4 1.1-2.3 2.6-2.5 1.4-.2 2.2-1 2.2-2.3 0-1.6.7-1.9 5-1.9 4.7 0 5-.2 5-2.5 0-1.8.5-2.5 2-2.5 1.3 0 2-.7 2-1.9 0-1.5 1-2 4.5-2.5 3.6-.6 4.5-1.1 4.5-2.7 0-1.3.7-1.9 2.4-1.9 1.8 0 2.5-.6 2.8-2.3.2-1.8 1-2.3 4.5-2.5 3.4-.3 4.2-.7 4.5-2.5.2-1.4 1.1-2.3 2.6-2.5 1.4-.2 2.2-1 2.2-2.3 0-1.4.7-1.9 2.5-1.9 2 0 2.5-.5 2.5-2.5s.5-2.5 2.5-2.5c1.8 0 2.5-.5 2.5-2 0-1.4.7-2 2.1-2 1.2 0 2.3-.8 2.6-1.9.3-1.3 1.7-2.2 4.3-2.6 3-.5 4-1.2 4.2-2.8.2-1.4 1.1-2.3 2.5-2.5s2.3-1.1 2.5-2.5 1.1-2.3 2.6-2.5c1.4-.2 2.2-1 2.2-2.3 0-1.2.7-1.9 1.9-1.9 1.3 0 2.1-.8 2.3-2.3.2-1.4 1.1-2.3 2.5-2.5s2.3-1.1 2.5-2.5 1.1-2.3 2.6-2.5c1.4-.2 2.2-1 2.2-2.3 0-1.2.7-1.9 1.9-1.9 1.3 0 2.1-.8 2.3-2.3a2.8 2.8 0 012.4-2.5c1.7-.2 2.3-1.2 2.9-4.8.5-3.5 1-4.4 2.6-4.4 1.2 0 1.9-.7 1.9-1.9 0-1.3.8-2.1 2.3-2.3 1.4-.2 2.3-1.1 2.5-2.6.2-1.4 1-2.2 2.3-2.2 1.4 0 1.9-.7 1.9-2.5 0-2 .5-2.5 2.5-2.5s2.5-.5 2.5-2.5c0-1.8.5-2.5 1.9-2.5 1.6 0 2.1-.9 2.7-4.5.5-3.4 1.1-4.5 2.4-4.5 1.2 0 2-.9 2.2-2.3s1.1-2.3 2.6-2.5c1.6-.3 2.2-1 2.2-2.8 0-1.7.6-2.4 1.9-2.4 1.5 0 2.1-1 2.6-4s1.1-4 2.6-4c1.3 0 1.9-.7 1.9-2.4 0-1.8.6-2.5 2.3-2.8 1.8-.2 2.3-1 2.5-4.6.3-3.4.7-4.2 2.3-4.2 1.4 0 1.9-.7 1.9-2.5 0-2 .5-2.5 2.5-2.5 2.3 0 2.5-.4 2.5-4.4 0-3.9.3-4.5 2.3-4.8 1.6-.2 2.3-1.1 2.5-3.1.2-1.9.9-2.7 2.2-2.7 1.5 0 2-1 2.6-4.5.5-3.4 1.1-4.5 2.5-4.5s1.9-.9 2.1-4.3c.2-3.5.7-4.3 2.6-4.5 1.9-.3 2.2-.9 2.2-4.8 0-3.7.3-4.4 2-4.4 1.5 0 2-.7 2-2.5 0-2 .5-2.5 2.5-2.5 2.3 0 2.5-.4 2.5-4.5 0-3.7.3-4.5 1.9-4.5 2 0 3.1-3.4 3.1-10.1 0-3.2.3-3.9 2-3.9 1.5 0 2-.7 2-2.5 0-2 .5-2.5 2.5-2.5 2.2 0 2.5-.4 2.5-3.4 0-5.8 1.1-9.4 3.1-9.9 1.5-.4 1.9-1.4 1.9-5.1 0-3.9.3-4.6 1.9-4.6 1.7 0 2-.8 2.3-4.8s.6-4.7 2.6-5 2.2-.9 2.2-6.8c0-6.2.1-6.4 2.5-6.4 2.3 0 2.5-.3 2.5-5 0-4.3.3-5 2-5 1.6 0 2-.7 2-3.3 0-6.8 1.2-10.7 3.1-10.7 1.7 0 1.9-.8 1.9-7 0-6.8.1-7 2.5-7s2.5-.2 2.5-6.5c0-5.8.2-6.5 2-6.5 1.6 0 2-.7 2-3.8 0-7.3 1.1-11.2 3.1-11.2 1.7 0 1.9-.9 1.9-8.9 0-8.5.1-9 2.3-9.3 2-.3 2.2-.9 2.5-7.1.3-5.9.5-6.7 2.2-6.7 1.8 0 2-.7 2-5.8 0-9.2 1-13.2 3.1-13.2 1.8 0 1.9-1.1 1.9-16.5 0-15.8-.1-16.5-2-16.5-1.3 0-2-.7-2-2 0-1.4-.7-2-2.2-2-4.1 0-6.6-1.1-7.1-3.1-.3-1.3-1.4-1.9-3.1-1.9-1.9 0-2.6-.5-2.6-2 0-1.7-.7-2-4.5-2-4.1 0-4.5-.2-4.5-2.5s-.4-2.5-4.5-2.5c-3.7 0-4.5-.3-4.5-1.9 0-1.5-1-2-4.5-2.5-3.5-.6-4.5-1.1-4.5-2.6 0-1.4-1.1-2-5-2.5-4-.6-5-1.1-5-2.6 0-1.6-.7-1.9-4.5-1.9-4.1 0-4.5-.2-4.5-2.5 0-2-.5-2.5-2.5-2.5-1.8 0-2.5-.5-2.5-2 0-1.7-.7-2-4.5-2-4.1 0-4.5-.2-4.5-2.5s-.3-2.5-5-2.5c-4.3 0-5-.3-5-1.9s-.9-2.1-4.5-2.7c-3.5-.5-4.5-1-4.5-2.5 0-1.6-.8-1.9-4.5-1.9-4.1 0-4.5-.2-4.5-2.5s-.3-2.5-5-2.5c-4.3 0-5-.3-5-1.9s-.9-2.1-4.5-2.7c-3.5-.5-4.5-1-4.5-2.5 0-1.6-.8-1.9-4.5-1.9-4.1 0-4.5-.2-4.5-2.5s-.3-2.5-5-2.5c-4.3 0-5-.3-5-1.9s-.9-2.1-4.5-2.7c-3.5-.5-4.5-1-4.5-2.5 0-1.1-.6-1.9-1.4-1.9l-4.5-.6-3.1-.7zm2210 538.5c0 1.6.8 2 4.3 2.3 3.5.2 4.3.7 4.5 2.5.3 2 .9 2.3 4.8 2.3 4 0 4.4.2 4.4 2.5s.4 2.5 4.5 2.5 4.5.2 4.5 2.5c0 2 .5 2.5 2.5 2.5 1.8 0 2.5.5 2.5 2 0 1.3.7 2 1.9 2 1.5 0 2 1 2.5 4.5.6 3.6 1.1 4.5 2.7 4.5s1.9.7 1.9 5c0 4.2.3 5 1.9 5 2.2 0 3.1 3.5 3.1 12.1 0 5.2-.2 5.8-2.2 6.1-2.1.3-2.3.9-2.6 7.5-.2 6.3-.5 7.3-2.1 7.3-1.4 0-2 1-2.5 4.5-.6 3.6-1.1 4.5-2.7 4.5-1.4 0-1.9.7-1.9 2.5 0 2-.5 2.5-2.5 2.5s-2.5.5-2.5 2.5c0 1.8-.5 2.5-2 2.5-1.3 0-2 .7-2 2 0 1.5-.7 2-2.5 2-2 0-2.5.5-2.5 2.5 0 1.8-.5 2.5-1.9 2.5-1.5 0-2.1 1-2.6 4-.6 3.7-.9 3.9-5.1 4.6-3.8.5-4.4 1-4.4 3 0 1.7-.6 2.4-1.9 2.4s-2.1.8-2.3 2.2c-.2 1.5-1.1 2.4-2.5 2.6-1.5.2-2.3 1-2.3 2.3 0 1.4-.7 1.9-2.5 1.9-2 0-2.5.5-2.5 2.5 0 1.8-.5 2.5-2 2.5-1.3 0-2 .7-2 2 0 1.5-.7 2-2.5 2-2 0-2.5.5-2.5 2.5s-.5 2.5-2.5 2.5c-1.8 0-2.5.5-2.5 1.9 0 1.3-.8 2.1-2.2 2.3-1.5.2-2.4 1.1-2.6 2.5-.3 2-.9 2.3-4.8 2.3-4 0-4.4.2-4.4 2.5 0 2-.5 2.5-2.5 2.5-1.8 0-2.5.5-2.5 1.9 0 1.6-.9 2.1-4.5 2.7-3.5.5-4.5 1-4.5 2.5 0 1.4-.7 1.9-2.5 1.9-2 0-2.5.5-2.5 2.5 0 2.3-.4 2.5-4.5 2.5s-4.5.2-4.5 2.5c0 2-.5 2.5-2.5 2.5-1.8 0-2.5.5-2.5 2 0 1.7-.7 2-4.5 2-4.1 0-4.5.2-4.5 2.5s-.4 2.5-4.5 2.5c-3.7 0-4.5.3-4.5 1.9 0 1.5-1 2-4.5 2.5-3.6.6-4.5 1.1-4.5 2.7s-.7 1.9-5 1.9c-4.7 0-5 .2-5 2.5 0 2.4-.2 2.5-7 2.5-6.2 0-7 .2-7 1.9 0 1.5-1 2-5 2.6s-5 1.1-5 2.6c0 1.7-.8 1.9-9 1.9-8.9 0-9 0-9 2.5v2.5h-37v-2.5c0-2.3-.3-2.5-5-2.5-4.3 0-5-.3-5-1.9 0-1.3-.8-2.1-2.2-2.3a2.8 2.8 0 01-2.6-2.6c-.2-1.4-1-2.2-2.3-2.2-1.7 0-1.9-.8-1.9-7.1 0-6.1.3-7.2 1.9-7.6 2-.5 3.1-7 3.1-17.9 0-4.7.2-5.4 2-5.4 1.7 0 2-.7 2-4.5 0-4.1.2-4.5 2.5-4.5 2.4 0 2.5-.2 2.5-7s.1-7 2.5-7c2.3 0 2.5-.4 2.5-4.5 0-3.8.3-4.5 2-4.5 1.5 0 2-.7 2-2.5 0-2 .5-2.5 2.5-2.5 2.3 0 2.5-.4 2.5-4.5 0-3.8.3-4.5 1.9-4.5 1.5 0 2-1 2.6-5s1.1-5 2.6-5c1.2 0 1.9-.7 1.9-2 0-1.4.7-2 2.4-2 2 0 2.5-.6 3-4.4.5-3.2 1.2-4.5 2.6-4.9 1.2-.3 2-1.4 2-2.6 0-1.4.6-2.1 2-2.1 1.5 0 2-.7 2-2.5 0-2 .5-2.5 2.5-2.5s2.5-.5 2.5-2.5.5-2.5 2.5-2.5c1.8 0 2.5-.5 2.5-2 0-1.3.7-2 2-2 1.5 0 2-.7 2-2.5 0-2 .5-2.5 2.5-2.5s2.5-.5 2.5-2.5c0-1.8.5-2.5 2-2.5 1.3 0 2-.7 2-2 0-1.5.7-2 2.5-2 2 0 2.5-.5 2.5-2.5s.5-2.5 2.5-2.5c1.8 0 2.5-.5 2.5-1.9 0-1.3.8-2.1 2.3-2.3a2.8 2.8 0 002.5-2.4c.2-1.7 1.2-2.3 4.8-2.9 3.5-.5 4.4-1 4.4-2.6 0-1.2.7-1.9 1.9-1.9 1.3 0 2.1-.8 2.3-2.3.2-1.4 1.1-2.3 2.6-2.5 1.4-.2 2.2-1 2.2-2.3 0-1.4.7-1.9 2.5-1.9s2.5-.5 2.5-1.9c0-1.6.9-2.1 4.4-2.6 3.6-.6 4.6-1.2 4.8-2.9.2-1.3 1.1-2.2 2.6-2.4 1.4-.2 2.2-1 2.2-2.3 0-1.6.7-1.9 4.5-1.9 4.1 0 4.5-.2 4.5-2.5s.4-2.5 4.5-2.5c3.7 0 4.5-.3 4.5-1.9 0-1.9 3.9-3.1 10.8-3.1 2.5 0 3.2-.4 3.2-2 0-1.9.7-2 24-2 23.1 0 24 .1 24 1.9M1239 594c0 1.8.7 2 5.8 2 9.2 0 13.2 1 13.2 3.1 0 1.6.8 1.9 4.4 1.9 3.9 0 4.5.3 4.8 2.2.3 2 1 2.3 5.1 2.6 3.9.3 4.7.6 4.7 2.3 0 1.2.7 1.9 2 1.9 1.5 0 2 .7 2 2.5 0 2 .5 2.5 2.5 2.5s2.5.5 2.5 2.5.5 2.5 2.5 2.5c1.8 0 2.5.5 2.5 2 0 1.3.7 2 2 2 1.5 0 2 .7 2 2.5 0 2 .5 2.5 2.5 2.5 2.3 0 2.5.4 2.5 4.5s.2 4.5 2.5 4.5c2 0 2.5.5 2.5 2.5 0 1.8.5 2.5 2 2.5 1.6 0 2 .7 2 3.2 0 6.9 1.2 10.8 3.1 10.8 1.7 0 1.9.9 1.9 8.9 0 8.5.1 9 2.3 9.3l2.2.3.3 26c.3 30 0 34.5-2.9 34.5-1.7 0-1.9.8-1.9 9.5 0 8.6-.2 9.5-1.9 9.5-1.9 0-3.1 3.9-3.1 10.7 0 2.6-.4 3.3-2 3.3-1.7 0-2 .7-2 5 0 4.7-.2 5-2.5 5-2.2 0-2.5.4-2.5 3.4 0 5.8-1.1 9.4-3.1 9.9-1.5.4-1.9 1.4-1.9 4.6 0 3.4-.3 4.1-2 4.1-1.5 0-2 .7-2 2.5 0 2-.5 2.5-2.5 2.5-2.3 0-2.5.4-2.5 4.4 0 3.9-.3 4.5-2.2 4.8-1.5.2-2.4 1.1-2.6 2.5-.2 1.5-1 2.3-2.3 2.3-1.4 0-1.9.7-1.9 2.5 0 2-.5 2.5-2.5 2.5-2.3 0-2.5.4-2.5 4.4 0 3.9-.3 4.5-2.2 4.8-1.5.2-2.4 1.1-2.6 2.5-.2 1.5-1 2.3-2.3 2.3-1.4 0-1.9.7-1.9 2.5 0 2-.5 2.5-2.5 2.5s-2.5.5-2.5 2.5c0 1.8-.5 2.5-2 2.5-1.3 0-2 .7-2 2 0 1.5-.7 2-2.5 2-2 0-2.5.5-2.5 2.5s-.5 2.5-2.5 2.5-2.5.5-2.5 2.5c0 1.8-.5 2.5-2 2.5-1.3 0-2 .7-2 2 0 1.5-.7 2-2.4 2-1.8 0-2.5.6-2.8 2.2-.2 1.5-1.1 2.4-2.5 2.6s-2.3 1-2.3 2.2c0 1.3-1.1 1.9-4.5 2.4-3.6.6-4.5 1.1-4.5 2.7 0 1.4-.7 1.9-2.5 1.9-2 0-2.5.5-2.5 2.5 0 2.3-.4 2.5-4.5 2.5-3.8 0-4.5.3-4.5 2 0 1.5-.7 2-2.5 2-2 0-2.5.5-2.5 2.5 0 2.3-.4 2.5-4.5 2.5-3.7 0-4.5.3-4.5 1.9 0 1.9-3.9 3.1-10.7 3.1-2.6 0-3.3.4-3.3 2 0 1.8-.7 2-7 2-6.8 0-7 .1-7 2.5v2.5h-26c-24.8 0-26-.1-26-1.9 0-2-3.4-3.1-10.1-3.1-3.2 0-3.9-.3-3.9-2 0-1.6-.7-2-3.4-2-6.2 0-9.6-1.1-9.6-3.1 0-1.6-.8-1.9-4.4-1.9-3.9 0-4.5-.3-4.8-2.3-.2-1.6-1.1-2.3-3-2.5-2-.2-2.8-.9-2.8-2.3 0-1.2-.7-1.9-2-1.9-1.5 0-2-.7-2-2.5 0-2-.5-2.5-2.5-2.5-1.8 0-2.5-.5-2.5-1.9 0-1.3-.8-2.1-2.2-2.3a2.8 2.8 0 01-2.6-2.6c-.2-1.4-1-2.2-2.3-2.2-1.4 0-1.9-.7-1.9-2.5 0-2-.5-2.5-2.5-2.5-2.3 0-2.5-.4-2.5-4.4 0-3.9-.3-4.5-2.2-4.8-1.9-.2-2.4-1-2.6-4.6-.3-3.4-.7-4.2-2.3-4.2s-1.9-.7-1.9-5c0-4.2-.3-5-1.9-5-2.4 0-3.1-3.5-3.1-15.1 0-8.2-.2-8.9-2-8.9-1.9 0-2-.7-2-9s.1-9 2-9 2-.7 2-12c0-11.1.1-12 1.9-12 2.2 0 3.1-3.5 3.1-12.1 0-5.2.2-5.9 2-5.9 1.6 0 2-.7 2-3.3 0-6.8 1.2-10.7 3.1-10.7 1.6 0 1.9-.8 1.9-4.4 0-3.9.3-4.5 2.3-4.8 1.9-.3 2.2-1 2.5-5.1.3-3.8.7-4.7 2.2-4.7s1.9-.9 2.2-4.3c.2-3.5.7-4.3 2.6-4.5 1.9-.3 2.2-.9 2.2-4.7s.3-4.4 2.3-4.7c1.8-.2 2.3-1 2.5-4.6.3-3.3.7-4.2 2.2-4.2 1.3 0 2-.8 2.2-2.8.2-1.9.9-2.8 2.6-3 1.4-.2 2.2-1 2.2-2.3 0-1.2.7-1.9 1.9-1.9 1.6 0 2.1-.9 2.7-4.5.5-3.5 1-4.5 2.5-4.5 1.4 0 1.9-.7 1.9-2.5 0-2 .5-2.5 2.5-2.5s2.5-.5 2.5-2.5.5-2.5 2.5-2.5c1.8 0 2.5-.5 2.5-2 0-1.3.7-2 2-2 1.5 0 2-.7 2-2.5 0-2 .5-2.5 2.5-2.5s2.5-.5 2.5-2.5.5-2.5 2.5-2.5c1.8 0 2.5-.5 2.5-2 0-1.3.7-2 1.9-2 1.3 0 2.1-.8 2.3-2.3.2-1.4 1.1-2.3 2.6-2.5 1.3-.2 2.2-1 2.2-2.2 0-1.3 1.1-1.9 4.5-2.4 3.6-.6 4.5-1.1 4.5-2.7 0-1.4.7-1.9 2.5-1.9 2 0 2.5-.5 2.5-2.5 0-2.3.4-2.5 4.5-2.5s4.5-.2 4.5-2.5c0-2 .5-2.5 2.5-2.5 1.8 0 2.5-.5 2.5-2 0-1.7.7-2 4.4-2 3.9 0 4.5-.3 4.8-2.3.3-1.9 1-2.2 5.1-2.5 4.2-.3 4.7-.5 4.7-2.8 0-2.2.4-2.4 4.5-2.4 3.8 0 4.5-.3 4.5-2s.7-2 4.6-2c3.7 0 4.7-.4 5.1-1.9.5-2 4.1-3.1 9.9-3.1 2.7 0 3.4-.4 3.4-1.9 0-2.1 4-3.1 13.3-3.1 5 0 5.7-.2 5.7-2 0-1.9.7-2 11.5-2s11.5.1 11.5 2m2023-433c0 1.9-.7 2-11.5 2-10.6 0-11.5.2-11.5 1.9 0 2-3.4 3.1-10.1 3.1-3.1 0-3.8.4-4.1 2.2-.2 1.9-1 2.4-4.5 2.6-3.5.3-4.3.7-4.3 2.3 0 1.3-.7 1.9-2.4 1.9-1.8 0-2.5.6-2.8 2.2-.2 1.9-1 2.4-4.4 2.6-4.1.3-4.2.4-4.9 4.8-.5 3.5-1 4.4-2.6 4.4-1.4 0-1.9.7-1.9 2.5 0 2-.5 2.5-2.5 2.5s-2.5.5-2.5 2.5c0 1.8-.5 2.5-2 2.5-1.6 0-2 .7-2 3.4 0 6.2-1.1 9.6-3.1 9.6-1.8 0-1.9 1.2-1.9 23.5s.1 23.5 1.9 23.5c2.1 0 3.1 4 3.1 12.7 0 4.5.3 5.3 1.9 5.3 1.5 0 2 1 2.5 5 .5 4.1 1 5 2.6 5 1.7 0 2 .7 2 4.4 0 3.9.3 4.5 2.3 4.8 1.4.2 2.3 1.1 2.5 2.5s1 2.3 2.2 2.3c1.3 0 1.9 1.1 2.4 4.5.6 3.6 1.1 4.5 2.7 4.5 1.4 0 1.9.7 1.9 2.5 0 2 .5 2.5 2.5 2.5 1.8 0 2.5.5 2.5 2 0 1.3.7 2 2 2 1.5 0 2 .7 2 2.5 0 2 .5 2.5 2.5 2.5s2.5.5 2.5 2.5c0 2.3.4 2.5 4.5 2.5s4.5.2 4.5 2.5c0 2 .5 2.5 2.5 2.5 1.8 0 2.5.5 2.5 1.9 0 1.5 1 2 4.5 2.5 3.6.6 4.5 1.1 4.5 2.7s.7 1.9 5 1.9 5 .3 5 2c0 1.6.7 2 3.4 2 6.2 0 9.6 1.1 9.6 3.1 0 1.7.9 1.9 9.5 1.9s9.5.2 9.5 1.9c0 2.3 4.1 3.1 16.5 3.1 11 0 16.5-.9 16.5-2.5 0-1.7 4.7-2.5 14.6-2.5 7.5 0 8.4-.2 8.4-1.9 0-1.9 3.9-3.1 10.8-3.1 2.5 0 3.2-.4 3.2-2 0-1.7.7-2 4.6-2 3.7 0 4.7-.4 5.1-2 .4-1.4 1.7-2.1 4.9-2.6 3.4-.5 4.4-1.1 4.4-2.5 0-1.3 1.1-1.9 4.5-2.5 3.5-.5 4.5-1 4.5-2.5 0-1.4.7-1.9 2.5-1.9 2 0 2.5-.5 2.5-2.5 0-1.8.5-2.5 2-2.5 1.3 0 2-.7 2-2 0-1.5.7-2 2.5-2 2 0 2.5-.5 2.5-2.5 0-1.8.5-2.5 1.9-2.5 1.5 0 2-1 2.5-4.5.6-3.6 1.1-4.5 2.7-4.5 1.8 0 1.9-.9 1.9-23.5 0-22.8-.1-23.5-2-23.5-1.6 0-2-.7-2-3.3 0-6.8-1.2-10.7-3.1-10.7-1.6 0-1.9-.8-1.9-4.4 0-3.9-.3-4.5-2.2-4.8-2-.3-2.3-1-2.6-5.1-.3-3.8-.7-4.7-2.2-4.7s-2-1-2.6-4.5c-.5-3.5-1-4.5-2.5-4.5-1.2 0-1.9-.7-1.9-1.9 0-1.3-.8-2.1-2.2-2.3a2.8 2.8 0 01-2.6-2.6c-.2-1.4-1-2.2-2.3-2.2-1.4 0-1.9-.7-1.9-2.5 0-2-.5-2.5-2.5-2.5s-2.5-.5-2.5-2.5c0-1.8-.5-2.5-2-2.5-1.3 0-2-.7-2-2 0-1.5-.7-2-2.5-2-2 0-2.5-.5-2.5-2.5s-.5-2.5-2.5-2.5c-1.8 0-2.5-.5-2.5-1.9 0-1.3-.8-2.1-2.2-2.3a2.8 2.8 0 01-2.6-2.6c-.3-1.9-.9-2.2-4.8-2.2-4 0-4.4-.2-4.4-2.5s-.4-2.5-4.5-2.5c-3.8 0-4.5-.3-4.5-1.9 0-1.5-1-2-5-2.6s-5-1.1-5-2.6c0-1.6-.7-1.9-4.5-1.9-3.7 0-4.5-.3-4.5-1.9 0-2.4-3.5-3.1-16.6-3.1-9.7 0-10.4-.1-10.4-2s-.7-2-14.5-2-14.5.1-14.5 2m490 343.9c0 17.6-.5 21.1-3.1 21.1-1.4 0-1.9.7-1.9 2.5 0 2-.5 2.5-2.5 2.5-1.8 0-2.5-.5-2.5-2 0-1.3-.7-2-2-2-1.5 0-2-.7-2-2.5 0-2-.5-2.5-2.5-2.5-1.8 0-2.5-.5-2.5-2s-.7-2-2.5-2c-2 0-2.5-.5-2.5-2.5 0-2.3-.4-2.5-4.5-2.5s-4.5-.2-4.5-2.5-.3-2.5-5-2.5c-4.3 0-5-.3-5-1.9s-.9-2.1-4.5-2.7c-3.5-.5-4.5-1.1-4.5-2.5 0-1.5-1-1.9-6.7-2.1-6.2-.3-6.8-.5-7.1-2.6l-.3-2.2H3607v5h-11.5c-10.6 0-11.5.2-11.5 1.9 0 1.9-3.9 3.1-10.7 3.1-2.6 0-3.3.4-3.3 2 0 1.9-.7 2-9.5 2-9.5 0-9.5 0-9.5 2.5 0 2.4-.2 2.5-7 2.5-6.3 0-7 .2-7 1.9 0 1.6-.9 2.1-4.5 2.7-3.5.5-4.5 1-4.5 2.5 0 1.7-.8 1.9-7 1.9-6.8 0-7 .1-7 2.5 0 2.3-.4 2.5-4.5 2.5-3.8 0-4.5.3-4.5 1.9 0 1.5-1 2-5 2.6s-5 1.1-5 2.6c0 1.6-.7 1.9-4.5 1.9-4.1 0-4.5.2-4.5 2.5s-.4 2.5-4.5 2.5c-3.8 0-4.5.3-4.5 2 0 1.5-.7 2-2.5 2-2 0-2.5.5-2.5 2.5 0 2.3-.4 2.5-4.5 2.5s-4.5.2-4.5 2.5c0 2-.5 2.5-2.5 2.5-1.8 0-2.5.5-2.5 1.9 0 1.5-1 2-4.5 2.5-3.6.6-4.5 1.1-4.5 2.7 0 1.4-.7 1.9-2.5 1.9-2 0-2.5.5-2.5 2.5s-.5 2.5-2.5 2.5c-1.8 0-2.5.5-2.5 1.9 0 1.6-.9 2.1-4.5 2.7-3.5.5-4.5 1-4.5 2.5 0 1.4-.7 1.9-2.5 1.9-2 0-2.5.5-2.5 2.5 0 1.8-.5 2.5-2 2.5-1.3 0-2 .7-2 2 0 1.5-.7 2-2.5 2-2 0-2.5.5-2.5 2.5s-.5 2.5-2.5 2.5-2.5.5-2.5 2.5c0 1.8-.5 2.5-2 2.5-1.3 0-2 .7-2 2 0 1.5-.7 2-2.5 2-2 0-2.5.5-2.5 2.5s-.5 2.5-2.5 2.5-2.5.5-2.5 2.5c0 1.8-.5 2.5-1.9 2.5-1.3 0-2.1.8-2.3 2.2-.2 1.5-1.1 2.4-2.5 2.6-1.9.3-2.3 1-2.3 4.2s-.4 3.9-2.2 4.2c-1.7.2-2.4 1.1-2.6 3s-.9 2.8-2.2 2.8c-1.4 0-2 1-2.5 4s-1.1 4-2.6 4c-1.4 0-1.9.7-1.9 2.5s-.5 2.5-1.9 2.5c-1.5 0-2 1-2.6 5s-1.1 5-2.6 5c-1.6 0-1.9.7-1.9 4.5 0 4.1-.2 4.5-2.5 4.5s-2.5.4-2.5 4.5c0 3.8-.3 4.5-2 4.5-1.6 0-2 .7-2 3.2 0 6.8-1.2 10.8-3.1 10.8-1.4 0-1.9.9-2.1 4.7-.3 4.1-.6 4.8-2.5 5.1-2.1.3-2.3.9-2.3 6.8 0 5.7-.2 6.4-2 6.4-1.6 0-2 .7-2 3.7 0 7.3-1.1 11.3-3.1 11.3-1.7 0-1.9 1.1-2.1 11.2-.3 10.9-.4 11.3-2.5 11.6-2.3.3-2.3.3-2.3 20.8 0 19.7-.1 20.4-2 20.4-2 0-2 .7-2 28.5s0 28.5 2 28.5c1.9 0 2 .7 2 21 0 19.9.1 21 1.9 21 2.4 0 3.1 3.5 3.1 16.6 0 9.5.2 10.4 1.9 10.4 2 0 3.1 3.9 3.1 11.2 0 3.1.4 3.8 2 3.8 1.8 0 2 .7 2 7 0 6.2.2 7 1.9 7 2 0 3.1 3.4 3.1 9.6 0 2.6.4 3.3 2.3 3.6s2.2 1 2.5 5 .6 4.8 2.3 4.8c1.6 0 1.9.7 1.9 4.5 0 4.1.2 4.5 2.5 4.5 2 0 2.5.5 2.5 2.5 0 1.8.5 2.5 1.9 2.5 1.5 0 2 1 2.5 4.5.6 3.6 1.1 4.5 2.7 4.5s1.9.7 1.9 4.5c0 4.1.2 4.5 2.5 4.5 2 0 2.5.5 2.5 2.5 0 1.8.5 2.5 1.9 2.5 1.3 0 2.1.8 2.3 2.3.2 1.4 1.1 2.3 2.6 2.5 1.6.3 2.2 1 2.2 2.8 0 1.7.5 2.4 2 2.4 1.3 0 2 .7 2 2 0 1.4.7 2 2.4 2 2 0 2.5.6 3 4.5.6 3.6 1.1 4.5 2.7 4.5 1.4 0 1.9.7 1.9 2.5 0 2 .5 2.5 2.5 2.5 1.8 0 2.5.5 2.5 1.9 0 1.3.8 2.1 2.3 2.3 1.4.2 2.3 1.1 2.5 2.5.2 1.6 1.2 2.3 4.3 2.8 2.9.5 3.9 1.1 3.9 2.6 0 1.4.7 1.9 2.5 1.9s2.5.5 2.5 2 .7 2 2.5 2c2 0 2.5.5 2.5 2.5 0 2.3.4 2.5 4.5 2.5s4.5.2 4.5 2.5.3 2.5 5 2.5c4.3 0 5 .3 5 1.9s.9 2.1 4.5 2.7c3.5.5 4.5 1 4.5 2.5 0 1.7.8 1.9 7 1.9 6.8 0 7 .1 7 2.5 0 2.5 0 2.5 9.5 2.5 8.8 0 9.5.1 9.5 2 0 2 .7 2 28 2s28 0 28-2c0-1.9.7-2 9.5-2 8.6 0 9.5-.2 9.5-1.9 0-2.2 2.6-3.1 8.8-3.1 3.5 0 4.2-.3 4.2-1.9s.9-2.1 4.5-2.7c3.5-.5 4.5-1 4.5-2.5 0-1.6.8-1.9 5-1.9 4.7 0 5-.2 5-2.5s.4-2.5 4.5-2.5 4.5-.2 4.5-2.5c0-2 .5-2.5 2.5-2.5 1.8 0 2.5-.5 2.5-2 0-1.7.7-2 4.5-2 4.1 0 4.5-.2 4.5-2.5s.4-2.5 4.5-2.5 4.5-.2 4.5-2.5c0-2 .5-2.5 2.5-2.5 1.8 0 2.5-.5 2.5-2s.7-2 2.5-2 2.5-.5 2.5-1.9c0-1.6.9-2.1 4.5-2.7 3.4-.5 4.5-1.1 4.5-2.4 0-1.2.9-2 2.3-2.2s2.3-1.1 2.5-2.5c.3-2 .9-2.3 4.8-2.3 4 0 4.4-.2 4.4-2.5 0-1.8.5-2.5 2-2.5 1.3 0 2-.7 2-2 0-1.5.7-2 2.5-2 2 0 2.5-.5 2.5-2.5 0-2.3.4-2.5 4.5-2.5s4.5-.2 4.5-2.5c0-2 .5-2.5 2.5-2.5 1.8 0 2.5-.5 2.5-1.9 0-1.3.8-2.1 2.3-2.3 1.4-.2 2.3-1.1 2.5-2.6.3-1.6 1-2.2 2.8-2.2 1.9 0 2.4-.5 2.4-2.5 0-1.8.5-2.5 2-2.5 1.3 0 2-.7 2-2 0-1.5.7-2 2.5-2 2 0 2.5-.5 2.5-2.5s.5-2.5 2.5-2.5c1.8 0 2.5-.5 2.5-2 0-1.3.7-2 2-2 1.5 0 2-.7 2-2.5 0-2 .5-2.5 2.5-2.5s2.5-.5 2.5-2.5c0-1.8.5-2.5 1.9-2.5 1.3 0 2.1-.8 2.3-2.3.2-1.4 1.1-2.3 2.6-2.5 1.4-.2 2.2-1 2.2-2.3 0-1.4.7-1.9 2.5-1.9 2 0 2.5-.5 2.5-2.5 0-1.8.5-2.5 1.9-2.5 1.3 0 2.1-.8 2.3-2.3.2-1.4 1.1-2.3 2.5-2.5s2.3-1.1 2.5-2.5 1.1-2.3 2.6-2.5c1.4-.2 2.2-1 2.2-2.3 0-1.6.7-1.9 4.5-1.9h4.5v7c0 6.8.1 7 2.5 7 2.3 0 2.5.3 2.5 5 0 4.3.3 5 1.9 5s2.1.9 2.7 4.5c.5 3.5 1 4.5 2.5 4.5 1.6 0 1.9.8 1.9 4.6 0 3.7.4 4.7 1.9 5.1 2.2.6 3.1 3.1 3.1 9 0 3.9.2 4.3 2.5 4.3 2 0 2.5.5 2.5 2.5 0 1.8.5 2.5 2 2.5 1.7 0 2 .7 2 4.5 0 4.1.2 4.5 2.5 4.5s2.5.4 2.5 4.4c0 3.9.3 4.5 2.3 4.8 1.4.2 2.3 1.1 2.5 2.5s1 2.3 2.2 2.3c1.3 0 1.9 1.1 2.4 4.5.6 3.6 1.1 4.5 2.7 4.5 1.4 0 1.9.7 1.9 2.5 0 2 .5 2.5 2.5 2.5 1.8 0 2.5.5 2.5 2 0 1.3.7 2 2 2 1.5 0 2 .7 2 2.5 0 2 .5 2.5 2.5 2.5s2.5.5 2.5 2.5c0 2.3.4 2.5 4.5 2.5 3.8 0 4.5.3 4.5 1.9 0 1.3.8 2.1 2.3 2.3 1.4.2 2.3 1.1 2.5 2.5.3 2 .9 2.3 4.8 2.3 4 0 4.4.2 4.4 2.5 0 2.4.2 2.5 7 2.5 6.3 0 7 .2 7 2 0 1.6.7 2 3.3 2 6.8 0 10.7 1.2 10.7 3.1 0 1.6.8 1.9 5.9 1.9 8.6 0 12.1.9 12.1 3.1 0 1.8 1.5 1.9 37.4 1.9h37.5l.3-2.3c.3-2 .9-2.2 7.6-2.5 6.3-.3 7.2-.5 7.2-2.2 0-1.5 1-2 4.5-2.6 3.5-.5 4.5-1 4.5-2.5 0-1.6.8-1.9 4.5-1.9 4.1 0 4.5-.2 4.5-2.5s.4-2.5 4.5-2.5 4.5-.2 4.5-2.5c0-1.8.5-2.5 2-2.5 1.3 0 2-.7 2-2 0-1.5.7-2 2.5-2 2 0 2.5-.5 2.5-2.5s.5-2.5 2.5-2.5c2.3 0 2.5-.4 2.5-4.5s.2-4.5 2.5-4.5 2.5-.4 2.5-4.5c0-3.8.3-4.5 2-4.5 1.5 0 2-.7 2-2.5 0-2 .5-2.5 2.5-2.5 2.3 0 2.5-.4 2.5-4.4 0-3.9.3-4.5 2.3-4.8 1.9-.3 2.2-1 2.5-5.1.3-3.8.7-4.7 2.1-4.7s2-1.1 2.5-4.5c.6-3.6 1.1-4.5 2.7-4.5s1.9-.7 1.9-4.4c0-3.9.3-4.5 2.3-4.8 1.9-.3 2.2-1 2.5-5.1.3-3.8.7-4.7 2.2-4.7s1.9-.9 2.2-4.3c.2-3.5.7-4.3 2.6-4.5 1.9-.3 2.2-.9 2.2-4.8 0-3.7.3-4.4 1.9-4.4 1.5 0 2-1 2.6-5s1.1-5 2.6-5c1.6 0 1.9-.7 1.9-4.5 0-4.1.2-4.5 2.5-4.5s2.5-.3 2.5-5c0-4.3.3-5 1.9-5s2.1-.9 2.7-4.5c.5-3.5 1-4.5 2.5-4.5s1.9-.7 1.9-3.4c0-6.1 1.1-9.6 3.1-9.6 1.4 0 1.9-.9 2.1-4.8.3-4 .6-4.7 2.6-5 2.1-.3 2.2-.8 2.2-9.2s-.1-8.9-2.2-9.2c-1.5-.2-2.4-1.1-2.6-2.5s-1.1-2.3-2.5-2.5-2.3-1.1-2.5-2.6c-.2-1.4-1-2.2-2.3-2.2-1.2 0-1.9-.7-1.9-2 0-1.7-.7-2-4.5-2s-4.5.3-4.5 2c0 1.5-.7 2-2.5 2-2 0-2.5.5-2.5 2.5 0 2.3-.4 2.5-4.5 2.5s-4.5.2-4.5 2.5c0 2-.5 2.5-2.5 2.5-1.8 0-2.5.5-2.5 1.9 0 1.3-.8 2.1-2.2 2.3-1.5.2-2.4 1.1-2.6 2.5-.3 2-.9 2.3-4.8 2.3-4 0-4.4.2-4.4 2.5 0 2-.5 2.5-2.5 2.5-1.8 0-2.5.5-2.5 1.9 0 1.3-.8 2.1-2.2 2.3-1.5.2-2.4 1.1-2.6 2.5-.3 2-.9 2.3-4.8 2.3-4 0-4.4.2-4.4 2.5 0 2-.5 2.5-2.5 2.5-1.8 0-2.5.5-2.5 1.9 0 1.6-.8 2-4.2 2.3-3.6.2-4.4.7-4.6 2.5-.3 2-.9 2.3-4.8 2.3-3.7 0-4.4.3-4.4 1.9s-1 2.1-5.2 2.6c-2.9.3-9.3.5-14.3.3-8.5-.3-9-.4-9.3-2.6-.3-2-.9-2.2-6.9-2.2-5.5 0-6.6-.3-7-1.9-.5-2-3-3.1-7-3.1-1.6 0-2.3-.6-2.3-1.9 0-1.6-.8-2-4.2-2.3-3.6-.2-4.4-.7-4.6-2.6-.3-1.6-1-2.2-2.8-2.2-1.7 0-2.4-.5-2.4-2 0-1.3-.7-2-2-2-1.5 0-2-.7-2-2.5 0-2-.5-2.5-2.5-2.5s-2.5-.5-2.5-2.5c0-1.8-.5-2.5-1.9-2.5-1.9 0-3.1-3.9-3.1-10.8 0-2.5-.4-3.2-2-3.2-1.9 0-2-.7-2-14s.1-14 2-14c1.8 0 2-.7 2-7.3 0-3.9.3-10.2.7-14 .5-5.6.9-6.7 2.4-6.7 1.7 0 1.9-1.1 2.1-11.8.3-11.3.4-11.7 2.6-12s2.2-.6 2.2-13.8c0-12.7.1-13.4 2-13.4 1.8 0 2-.7 2-7.3 0-3.9.3-10.2.7-14 .5-5.6.9-6.7 2.4-6.7 1.7 0 1.9-.9 1.9-8.4 0-10.8.7-14.3 3.1-14.9 1.7-.5 1.9-1.6 1.9-12.1 0-10.9.1-11.6 2-11.6 1.8 0 2-.7 2-6.3 0-3.5.3-9.8.6-14 .6-6.6 1-7.7 2.5-7.7 1.7 0 1.9-1 1.9-11.4 0-11.1.1-11.5 2.3-11.8 2.1-.3 2.2-.6 2.5-14.1.2-12.9.4-13.7 2.2-13.7 1.9 0 2-.7 2-14s-.1-14-2-14c-1.7 0-2-.7-2-4.5 0-4.1-.2-4.5-2.5-4.5-2 0-2.5-.5-2.5-2.5 0-1.8-.5-2.5-1.9-2.5-1.3 0-2.1-.8-2.3-2.3a2.8 2.8 0 00-2.5-2.5c-1.7-.3-2.3-1-2.3-2.8 0-1.7-.5-2.4-2-2.4-1.3 0-2-.7-2-2 0-1.6-.7-2-3-2s-3-.5-3-1.9c0-1.5-1-2.1-4-2.6-2.9-.5-4-1.2-4-2.5s-1.1-1.9-5-2.4c-4.1-.5-5-1-5-2.6 0-1.7-.7-2-4.5-2s-4.5-.3-4.5-1.9c0-1.7-.8-2-4.7-2.3-4.1-.3-4.8-.6-5.1-2.6s-.9-2.2-6.1-2.2c-8.6 0-12.1-.9-12.1-3.1 0-1.7-.8-1.9-7-1.9-6.3 0-7-.2-7-2 0-1.6-.7-2-3.2-2-6.9 0-10.8-1.2-10.8-3.1 0-1.7-.8-1.9-7-1.9-6.8 0-7-.1-7-2.5 0-2.5-.1-2.5-9-2.5-8.1 0-9-.2-9-1.9 0-1.5-1-2-5.5-2.6-4.5-.5-5.5-1-5.5-2.6 0-1.7-.8-1.9-9-1.9-8.9 0-9 0-9-2.5 0-2.4-.2-2.5-7-2.5-6.3 0-7-.2-7-2 0-1.9-.7-2-9-2h-9zm-56 84c0 2.2 3.5 3.1 12.1 3.1 5.2 0 5.9.2 5.9 2 0 1.5.7 2 2.5 2 2 0 2.5.5 2.5 2.5 0 2.3.4 2.5 4.4 2.5 3.9 0 4.5.3 4.8 2.2a2.8 2.8 0 002.6 2.6c1.4.2 2.2 1 2.2 2.3 0 1.4.7 1.9 2.5 1.9 2 0 2.5.5 2.5 2.5 0 1.8.5 2.5 1.9 2.5 1.3 0 2.1.8 2.3 2.2a2.8 2.8 0 002.6 2.6c1.4.2 2.2 1 2.2 2.2s.8 2 2.3 2.2c1.6.2 2.3 1.1 2.5 3 .2 2 .9 2.8 2.3 2.8 1.5 0 1.9.7 1.9 3.4 0 6.2 1.1 9.6 3.1 9.6 1.6 0 1.9.8 1.9 5s.3 5 1.9 5c2.2 0 3.1 3.5 3.1 12.1 0 5.2.2 5.9 2 5.9 2 0 2 .7 2 28s0 28-2 28c-1.8 0-2 .7-2 5.7 0 9.3-1 13.3-3.1 13.3-1.7 0-1.9.8-1.9 7s-.2 7-1.9 7c-2 0-3.1 3.4-3.1 10.1 0 3.2-.3 3.9-2 3.9s-2 .7-2 4.5c0 4.1-.2 4.5-2.4 4.5-2.3 0-2.5.5-2.8 4.7-.3 4.1-.6 4.8-2.5 5.1-2 .3-2.3.9-2.3 4.8 0 3.7-.3 4.4-1.9 4.4-1.3 0-2.1.8-2.3 2.2-.2 1.5-1.1 2.4-2.5 2.6-2 .3-2.3.9-2.3 4.8 0 4-.2 4.4-2.5 4.4-2 0-2.5.5-2.5 2.5 0 1.8-.5 2.5-1.9 2.5-1.5 0-2.1 1-2.6 4s-1.1 4-2.6 4c-1.3 0-1.9.7-1.9 2.4 0 1.8-.6 2.5-2.2 2.8-1.5.2-2.4 1.1-2.6 2.5-.2 1.5-1 2.3-2.3 2.3-1.4 0-1.9.7-1.9 2.5 0 2-.5 2.5-2.5 2.5-1.8 0-2.5.5-2.5 1.9 0 1.3-.8 2.1-2.2 2.3-1.5.2-2.4 1.1-2.6 2.5-.2 1.5-1 2.3-2.3 2.3-1.4 0-1.9.7-1.9 2.5 0 2-.5 2.5-2.5 2.5-1.8 0-2.5.5-2.5 1.9 0 1.3-.8 2.1-2.2 2.3-1.5.2-2.4 1.1-2.6 2.5-.3 1.7-1 2.3-2.8 2.3-1.7 0-2.4.6-2.4 1.9 0 1.5-1 2.1-4 2.6s-4 1.1-4 2.6c0 1.4-.7 1.9-2.5 1.9-2 0-2.5.5-2.5 2.5 0 2.3-.4 2.5-4.4 2.5-3.9 0-4.5.3-4.8 2.2-.3 2-1 2.3-5 2.6-3.9.3-4.8.7-4.8 2.1s-1.1 2-4.5 2.5c-3.6.6-4.5 1.1-4.5 2.7s-.7 1.9-5 1.9c-4.2 0-5 .3-5 1.9 0 2.2-3.5 3.1-12.1 3.1-5.2 0-5.9.2-5.9 2 0 2-.7 2-28 2s-28 0-28-2c0-1.8-.7-2-7-2-6.8 0-7-.1-7-2.5 0-2.3-.3-2.5-5-2.5-4.3 0-5-.3-5-1.9s-.9-2.1-4.5-2.7c-3.4-.5-4.5-1.1-4.5-2.4 0-1.2-.9-2-2.2-2.2a2.8 2.8 0 01-2.6-2.6c-.3-1.6-1-2.2-2.8-2.2-1.7 0-2.4-.5-2.4-2 0-1.3-.7-2-2-2-1.5 0-2-.7-2-2.5 0-2-.5-2.5-2.5-2.5s-2.5-.5-2.5-2.5c0-1.8-.5-2.5-2-2.5-1.7 0-2-.7-2-4.5 0-4.1-.2-4.5-2.5-4.5s-2.5-.4-2.5-4.4c0-3.9-.3-4.5-2.2-4.8-2.1-.3-2.3-.9-2.6-7.6-.3-6.4-.5-7.2-2.2-7.2-1.9 0-2-.9-2-32.5 0-31.8 0-32.5 2-32.5 1.8 0 2-.7 2-8.4 0-11.1.7-14.6 3.1-14.6 1.7 0 1.9-.8 1.9-7 0-6.8.1-7 2.5-7 2.3 0 2.5-.3 2.5-5 0-4.3.3-5 2-5 1.6 0 2-.7 2-3.4 0-6.1 1.1-9.6 3.1-9.6 1.4 0 1.9-.9 2.1-4.8.3-4 .6-4.7 2.6-5 1.6-.3 2.2-1 2.2-2.8 0-1.7.6-2.4 1.9-2.4 1.5 0 2-1 2.5-4.5.6-3.6 1.1-4.5 2.7-4.5 1.4 0 1.9-.7 1.9-2.5s.5-2.5 1.9-2.5c1.6 0 2.1-.9 2.7-4.5.5-3.9 1-4.5 3-4.5 1.7 0 2.4-.6 2.4-2 0-1.3.7-2 2-2 1.5 0 2-.7 2-2.5 0-2 .5-2.5 2.5-2.5s2.5-.5 2.5-2.5c0-1.8.5-2.5 1.9-2.5 1.3 0 2.1-.8 2.3-2.3.2-1.4 1.1-2.3 2.6-2.5 1.4-.2 2.2-1 2.2-2.3 0-1.4.7-1.9 2.5-1.9 2 0 2.5-.5 2.5-2.5 0-1.8.5-2.5 2-2.5 1.3 0 2-.7 2-1.9 0-1.4.8-2.1 2.8-2.3 1.9-.2 2.8-.9 3-2.6.3-1.8 1-2.2 4.3-2.2 3.5 0 3.9-.3 3.9-2.5 0-2 .5-2.5 2.5-2.5 1.8 0 2.5-.5 2.5-1.9 0-1.6.9-2.1 4.5-2.7 3.4-.5 4.5-1.1 4.5-2.4s1.1-1.9 4.5-2.4c3.6-.6 4.5-1.1 4.5-2.7 0-1.4.7-1.9 3-1.9s3-.5 3-1.9c0-1.6.9-2.1 4.5-2.7 3.5-.5 4.5-1 4.5-2.5s.7-1.9 3.4-1.9c6.2 0 9.6-1.1 9.6-3.1 0-1.6.8-1.9 5-1.9s5-.3 5-1.9c0-1.9 3.9-3.1 10.8-3.1 2.5 0 3.2-.4 3.2-2 0-1.8.7-2 7-2 6.8 0 7-.1 7-2.5V587h16.5c15.5 0 16.5.1 16.5 1.9"/></svg>