<svg xmlns="http://www.w3.org/2000/svg" version="1.0" viewBox="-43.5 -16 580 232" preserveAspectRatio="xMidYMid meet"><path fill="#D2002D" d="M74.4 34.6c-9 4.4-8 18.8 1.6 22.1 4.4 1.5 50.9 1.7 56.2.3 7.6-2.1 11.1-10.7 7.3-18-2.9-5.7-4.7-6-34.7-6-22.3 0-27.9.3-30.4 1.6m128.3 23.1c-.4.3-.7 8.7-.7 18.5V94h30l1.2-2.5c1.1-2.4 1.6-2.5 8.9-2.5 7.4 0 7.7.1 8.3 2.5.6 2.2 1.2 2.5 5.1 2.5 2.5 0 4.5-.1 4.5-.3 0-.1-3.8-8.4-8.4-18.2-4.9-10.6-8.9-18-9.7-18-1.5 0-2.8 2.3-10.2 18.3L227 86.1l-8.3-.3-8.2-.3-.3-14.3-.3-14.2h-3.3c-1.8 0-3.6.3-3.9.7M243.5 76c2.2 4.2 1.9 5-2 5-1.9 0-3.5-.2-3.5-.5 0-.7 3.3-7.5 3.7-7.5.1 0 .9 1.3 1.8 3M256 61v4h8v29h9V64.9l4.5.3 4.6.3 6.6 14.2c4.4 9.4 7.2 14.3 8.3 14.3 1 0 4.3-6 9.8-17.9 4.5-9.8 8.2-18.1 8.2-18.5s-1.9-.6-4.2-.4l-4.2.3-4.5 10.2c-2.5 5.7-4.9 10.3-5.2 10.3s-2.6-4.6-5.2-10.3l-4.6-10.2-15.5-.3-15.6-.3zm62 14.5V94h8V57h-8zm23.7-17.9c-.4.4-.7 6.7-.7 13.9 0 14.4-.6 16.1-5.2 15-3.2-.8-6.7 2.7-4.9 4.9 2.4 2.8 7.6 3.8 11.4 2.2 6.4-2.6 7.2-5.1 7.2-21.6V57.5l-3.5-.3c-2-.2-3.9 0-4.3.4m26.9.2c-.8 1.3-16.6 35.4-16.6 35.8 0 .2 2 .4 4.5.4 3.9 0 4.5-.3 5.1-2.5.6-2.4.9-2.5 8.3-2.5 7.3 0 7.8.1 8.9 2.5 1 2.1 1.9 2.5 5.2 2.5 2.2 0 4-.4 4-.8 0-.9-14.1-31.4-16-34.5-1.1-1.8-2.6-2.2-3.4-.9m3.9 19.5L374 81h-8l2-4.1c1.2-2.3 2.3-3.9 2.5-3.7.3.2 1.1 2.1 2 4.1m21.9-18.4c-5 3-6.1 8.8-2.9 14.3.6.9 3.7 3.2 7 5 4.8 2.7 6 3.9 6 5.8 0 3.2-4 3.8-8.5 1.5-1.8-.9-3.3-1.5-3.5-1.3-.8 1-2.5 4.8-2.5 5.7 0 1.4 4.6 3.7 9.2 4.5 7.5 1.4 14.8-4.1 14.8-11.2 0-4-3.2-7.8-9.3-10.9-2.9-1.4-5.5-3.1-5.9-3.7-2.6-3.8 1.7-5.6 7-2.8l3.7 1.9 1.9-2.4c2.3-3.1 1.5-5-2.9-6.8-4.7-2-10.4-1.9-14.1.4M97.1 72.5c-6 5.1-6.2 13.2-.5 18.6l2.6 2.4 35.4.3 35.3.3 3.6-3.3c4.5-4.1 5.5-9 3-14.2-3.1-6.5-3.5-6.6-41.9-6.6h-34.4zM32 80c-.8 1.4-.8 2.6 0 4 1.1 2 1.9 2 23.7 1.8 20.2-.3 22.7-.5 23.7-2.1.8-1.2.8-2.2 0-3.5-1-1.5-3.5-1.7-23.7-2C33.9 78 33.1 78 32 80m415.5 18.1c-.4.6-.5 1.1-.4 1.3.2.1 1.7 1.2 3.2 2.4l2.9 2.1 2.9-2.1c1.6-1.2 2.9-2.8 2.9-3.5 0-1.5-3.6-1.8-4.5-.3-.4.7-1.2.7-2.5 0-2.4-1.3-3.7-1.3-4.5.1M38 107.8c-9.1 4.5-8.7 17.9.5 21.8 5 2.1 66 2 71 0 6.9-2.9 9.3-11.6 5-18.2-3.3-5.1-5.8-5.4-40.7-5.4-28.7 0-32.7.2-35.8 1.8m164 16.6V143h8.7c10.7 0 16.1-2.2 20.1-8.3 3.8-5.8 3.8-14.6 0-20.4-3.8-5.7-8.4-7.7-19.5-8.1l-9.3-.4zm20.7-7c3.5 4.1 3.2 10.8-.6 14.7-2.4 2.4-3.8 2.9-7.5 2.9H210v-21.3l5.2.5c4 .4 5.7 1.1 7.5 3.2M237 110v4h6c3.3 0 6 .3 6 .7 0 .3-3.1 6.6-7 14-3.8 7.4-7 13.6-7 13.8 0 .3 5.9.5 13 .5h13v-8h-6c-3.4 0-6-.4-6-1s2.9-6.9 6.5-14 6.5-13.2 6.5-13.5-5.6-.5-12.5-.5H237zm30.7-3.3c-.4.3-.7 8.7-.7 18.5V143h24v-7.9l-7.7-.3-7.8-.3v-3c0-3 0-3 6.3-3.3l6.2-.3V120h-13.1l.3-2.8c.3-2.7.4-2.7 8.1-3l7.7-.3V106h-11.3c-6.3 0-11.7.3-12 .7m30.3 17.8V143h21v-8h-13v-29h-8zm25-14.5v4h6c3.3 0 6 .2 6 .5s-3.2 6.8-7 14.5l-7 14h26v-8h-6c-3.3 0-6-.2-6-.6 0-.3 2.9-6.6 6.5-14.1s6.5-13.7 6.5-13.9-5.6-.4-12.5-.4H323zm38.5-2.6c-1.7.7-4.5 2.9-6.2 4.9-8.1 9.2-6.1 22.2 4.3 28.3 5.2 3.1 12.5 3.4 17.9.8 4.8-2.2 5.4-4 2.3-7-2.4-2.4-2.5-2.5-5.4-.8-3.9 2.2-9.2 1.3-12.5-2.2-1.8-1.9-2.4-3.7-2.4-7.1 0-3.8.5-4.9 3.3-7.4 3.6-3.2 8-3.8 12.2-1.4 2.2 1.2 2.7 1.1 4.8-.7 3.1-3 2.8-4.5-1.8-6.8-4.5-2.3-12-2.6-16.5-.6m25.5 17.1v18.6l11.8-.3 11.7-.3.3-3.8.3-3.7H395v-7h13.1l-.3-3.8-.3-3.7-6.2-.3c-6.2-.3-6.3-.3-6.3-3.2v-2.9l7.8-.3 7.7-.3v-7l-11.7-.3-11.8-.3zm31-.1V143h21v-8h-12.9l-.3-14.3-.3-14.2-3.7-.3-3.8-.3zm27.1-15.8c-6.7 5.6-4.8 13.1 4.7 18.2 6.3 3.4 8 5.5 6.1 7.8-1.5 1.8-4.7 1.7-7.9-.1-3.5-2-3.7-1.9-5.5 1.5-1.5 2.8-1.4 3 1 4.6 5.9 3.9 14.9 3.4 19.4-1 2-2.1 2.6-3.6 2.6-7 0-5.4-2-7.8-9.8-11.8-4.8-2.3-5.8-3.3-5.5-5.1.4-2.9 3.4-3.4 7.6-1.1 3.4 1.8 3.4 1.8 5.3-.6 2.4-3.2 2.1-4.1-2.2-6.2-5.2-2.7-12.1-2.4-15.8.8M132 114.7c-3.2 1.3-3.9 4.3-1.4 6.7 2.3 2.4 43.5 2.4 45.8 0 1.8-1.8 2-3.2.6-5.4-.8-1.2-4.5-1.5-22.2-1.7-11.7-.1-22 .1-22.8.4m-57.8 29.7c-5.6 3-7.7 10.7-4.7 16.6 3 5.7 4.6 6 36.1 6h28.6l3.4-3.4c2.8-2.8 3.4-4.2 3.4-7.5 0-5.3-2.2-9.7-6-11.6-3.9-2-57.2-2.2-60.8-.1m350.4 4.1c-1.3 5 1.5 6.1 3.9 1.5 2-3.8 1.9-4-.9-4-1.7 0-2.6.7-3 2.5"/></svg>