<svg xmlns="http://www.w3.org/2000/svg" version="1.0" viewBox="-132 -12.8 464 185.6" preserveAspectRatio="xMidYMid meet"><path fill="#c1d911" d="M91.5 15.4c-6.9 1.7-14.3 5.7-19 10.3-2.2 2.2-6.1 4.7-8.7 5.7-23.3 8.6-30.3 39.3-14.4 63 4.7 7 40.2 40 45.3 42.2 4.6 2 10.3 1.7 14.2-.7 7.1-4.3 39.7-34.3 43.7-40.1 1.6-2.4 3.1-4.5 3.4-4.8.8-.8 3.1-7 4.6-12.5 5.5-19.5-4.2-40.7-21.3-47.1-2.6-1-6.5-3.4-8.7-5.5-10.1-9.8-25.4-13.9-39.1-10.5m25.4 10.1c5.4 3 7.6 5.5 4.9 5.5-3.1 0-10.7 6.3-15.3 12.5-2.6 3.6-5.1 6.5-5.5 6.5-.5 0-1.2-.9-1.5-2.1-1.1-3.4-12.4-14.7-16.1-16.1-4-1.4-3.9-2.6.5-5.2 6.5-3.8 10.4-4.6 19.1-4.3 7.2.2 9.4.8 13.9 3.2M82.3 40.1c3.1 2.1 6.5 5.8 10.2 11.4 4.8 7.1 5.5 8.9 5.5 13 0 3.1.6 5.5 1.7 6.7 1.5 1.7 1.7 1.7 3.5.2 1.3-1.2 1.8-3.1 1.8-6.5 0-10.3 14.4-27.9 22.7-27.9h2.4l-2.3 3c-1.9 2.6-2 3.4-1 5 2.1 3.5 1.5 8.5-1.5 11.5-2.5 2.4-3.3 2.7-7.5 2.2-4.4-.6-4.9-.4-6.8 2.2l-2 2.9 2.8 1.1c5.2 2 8.1 2.3 11.9 1.1 4.3-1.4 9-5.3 10.6-9 1.1-2.5 1.1-2.5 1.5.8.2 1.9-.4 5.7-1.3 8.6-3.4 10.7-13.1 20-24.3 23.2-19.2 5.6-40.9-9-42.8-28.9-.4-4.5-.3-4.9.8-3.2 5.6 8.4 16.8 11.9 23.4 7.1 1.6-1.2 1.6-1.4-.1-3.9-1.5-2.4-2.1-2.6-6.1-2-5.2.7-8.5-1.1-10.4-5.7-1.1-2.7-1.1-3.6.4-6.6 1.6-3.4 1.5-3.7-.5-6.5l-2-2.9h2.4c1.3 0 4.5 1.4 7 3.1M62 41.4c0 .3-.5 1.7-1.2 3.3-.7 1.7-1.4 11.8-1.7 26.3l-.6 23.5-3.4-5.3c-9.7-15.2-9.2-32.4 1.4-44.1 3.3-3.6 5.5-5.1 5.5-3.7m84.4 3.7c10.6 12.5 11.2 29 1.5 44.1l-3.4 5.3-.6-23c-.4-12.7-1.2-24.6-1.8-26.5-1.3-4.2-1.3-4-.2-4 .5 0 2.5 1.9 4.5 4.1M70.5 84.7c2.2 2.6 2.4 3.7 2.5 12.5 0 5.4-.3 9.8-.7 9.8s-1.7-1-3-2.2c-2.1-2-2.3-3-2.3-12.5 0-5.7.2-10.3.5-10.3s1.7 1.2 3 2.7m65.5 7.7c0 10.4 0 10.5-2.9 12.5-1.6 1.2-3.2 2.1-3.5 2.1s-.6-4.1-.6-9.1c0-8.5.2-9.4 2.8-12.4 1.5-1.9 3-3.4 3.5-3.4.4-.1.7 4.6.7 10.3M88 96c3.7 1.3 8.2 1.9 13.5 1.9s9.8-.6 13.5-1.9c3-1.1 5.8-1.9 6.3-2 .4 0 .7 4.7.7 10.4v10.5l-8.5 7.5c-8.6 7.7-12.1 9.5-15 7.9-.8-.5-5.1-4-9.5-7.9l-7.9-6.9-.1-10.8c0-5.9.3-10.7.8-10.7.4.1 3.2.9 6.2 2"/></svg>