<svg xmlns="http://www.w3.org/2000/svg" fill="none" viewBox="-7.6 -7.54 110.2 44.08" preserveAspectRatio="xMidYMid meet"><path fill="#fff" d="M53.916 24.97a.285.285 0 0 1-.114.364c-.623.37-2.553 1.503-5.012 1.503-4.301 0-6.8-2.98-7.056-7.221-4.899 4.187-8.38 7.383-13.81 7.383a10.8 10.8 0 0 1-4.351-.836 10.9 10.9 0 0 1-3.661-2.511c-1.551 1.15-4.775 3.185-7.946 3.185-5.268 0-8.404-3.887-8.404-8.981v-5.937a.206.206 0 0 0-.202-.206H.2a.2.2 0 0 1-.186-.127.2.2 0 0 1-.014-.078V7.803a.2.2 0 0 1 .122-.192.2.2 0 0 1 .077-.017h3.154a.206.206 0 0 0 .204-.205v-4.6a.29.29 0 0 1 .194-.26L7.956 1.1a.16.16 0 0 1 .192.082.2.2 0 0 1 .015.074V7.39a.206.206 0 0 0 .202.205h3.957a.206.206 0 0 1 .205.206v3.708a.21.21 0 0 1-.205.206H8.367a.204.204 0 0 0-.204.205v5.052c0 3.183 1.034 5.513 4.08 5.513 1.7 0 3.65-1.344 5.226-2.535a13.2 13.2 0 0 1-1.088-5.18c0-6.71 4.976-11.585 11.161-11.585 2.244 0 4.431.704 6.26 2.011a10.87 10.87 0 0 1 3.946 5.286.41.41 0 0 1-.112.442 83 83 0 0 1-9.365 7.281.392.392 0 0 1-.576-.114l-1.983-2.801a.41.41 0 0 1 .109-.582c2.794-1.782 6.462-4.86 6.462-4.86S31.076 7.39 27.581 7.39c-3.619 0-6.54 3.087-6.54 7.375 0 4.192 3.154 7.8 6.98 7.8 4.009 0 8.344-4.116 13.612-8.97V2.789a.285.285 0 0 1 .194-.26l4.192-1.44a.16.16 0 0 1 .21.155V7.39a.206.206 0 0 0 .201.205h3.958a.206.206 0 0 1 .204.206v3.708a.21.21 0 0 1-.204.206h-3.953a.206.206 0 0 0-.201.205v5.526c0 2.298.155 5.04 2.985 5.04 1.117 0 2.417-.828 2.888-1.06a.2.2 0 0 1 .258.102z"/><path fill="url(#a)" d="M81.356 1h-3.479L74.84 11.142 71.782 1h-3.459l4.589 14.06h3.835z"/><path fill="url(#b)" d="M81.356 1h-3.479L74.84 11.142 71.782 1h-3.459l4.589 14.06h3.835z"/><path fill="url(#c)" d="M81.356 1h-3.479L74.84 11.142 71.782 1h-3.459l4.589 14.06h3.835z"/><path fill="#fff" d="M55.942 4.063h3.599v10.995h3.164V4.063h3.618V1h-10.38z"/><path fill="url(#d)" d="M55.942 4.063h3.599v10.995h3.164V4.063h3.618V1h-10.38z"/><path fill="url(#e)" d="M90.077 1h-2.791v3.94h-3.93v2.81h3.924v3.958h2.792V7.751h3.934V4.94h-3.934z"/><defs><linearGradient id="c" x1="68.562" x2="76.062" y1="4.5" y2="6" gradientUnits="userSpaceOnUse"><stop stop-color="#489DFF"/><stop offset=".327" stop-color="#7094FB" stop-opacity=".767"/><stop offset="1" stop-color="#F476EE" stop-opacity="0"/></linearGradient><linearGradient id="d" x1="61.133" x2="61.133" y1="1" y2="15.058" gradientUnits="userSpaceOnUse"><stop offset=".219" stop-color="#00C4F9"/><stop offset="1" stop-color="#38D621"/></linearGradient><linearGradient id="e" x1="88.681" x2="88.681" y1="1" y2="11.708" gradientUnits="userSpaceOnUse"><stop offset=".219" stop-color="#00C4F9"/><stop offset="1" stop-color="#38D621"/></linearGradient><radialGradient id="a" cx="0" cy="0" r="1" gradientTransform="matrix(.5 5.5 -4.72673 .4297 74.062 12.5)" gradientUnits="userSpaceOnUse"><stop stop-color="#FABA00"/><stop offset="1" stop-color="#FE9F3F"/></radialGradient><radialGradient id="b" cx="0" cy="0" r="1" gradientTransform="matrix(-4.50002 12.49996 -26.86279 -9.67067 80.062 2.5)" gradientUnits="userSpaceOnUse"><stop stop-color="#FA74E9"/><stop offset=".753" stop-color="#FFA236"/><stop offset="1" stop-color="#FBB900"/></radialGradient></defs></svg>