<svg xmlns="http://www.w3.org/2000/svg" viewBox="-205 40 1450 665" preserveAspectRatio="xMidYMid meet"><path fill="#fff" d="m1032.08 544.36-24.69-54.15c-.76-1.64-2.7-2.36-4.33-1.58-7.57 3.62-28.42 16.6-46.33 16.6-45.36 0-47.85-43.05-47.85-79.24v-86.84c0-1.78 1.46-3.24 3.24-3.24h63.47c1.79 0 3.25-1.46 3.25-3.25v-58.28c0-1.79-1.46-3.25-3.25-3.25h-63.48c-1.77 0-3.23-1.45-3.23-3.23v-96.6c0-1.73-1.69-2.97-3.34-2.44l-67.4 22.42a4.52 4.52 0 0 0-3.15 4.3v169.93c-84.46 76.34-153.94 141.01-218.22 141.01s-111.83-56.68-111.83-122.56 46.96-115.92 104.88-115.92 75.43 38.64 75.43 38.64-58.72 48.38-103.5 76.36c-3.15 1.97-3.97 6.18-1.8 9.2l31.82 43.96c2.4 3.32 5.72 4.04 9.25 1.85 29.35-18.2 97.86-67.78 150.19-114.55a6.41 6.41 0 0 0 1.76-6.97c-25.77-70.2-90.56-114.75-163.8-114.75-99.19 0-178.96 76.68-178.96 182.18 0 26.96 5.91 55.16 17.45 81.4-25.28 18.78-56.55 39.87-83.83 39.87-48.86 0-65.39-36.64-65.39-86.64v-79.44c0-1.78 1.46-3.24 3.24-3.24h63.47c1.79 0 3.25-1.46 3.25-3.25v-58.28c0-1.79-1.46-3.25-3.25-3.25h-63.48a3.23 3.23 0 0 1-3.22-3.22V171.3c0-1.73-1.69-2.97-3.34-2.44l-67.4 22.42a4.53 4.53 0 0 0-3.15 4.3v72.33c0 1.78-1.46 3.24-3.24 3.24h-50.57c-1.79 0-3.25 1.46-3.25 3.25v58.28c0 1.79 1.46 3.25 3.25 3.25h50.58a3.23 3.23 0 0 1 3.22 3.22v93.33c0 80.08 50.29 141.2 134.76 141.2 50.88 0 102.39-32.02 127.41-50.1 30.88 31.49 74.07 52.68 128.75 52.68 86.88 0 142.69-50.26 221.21-116.08 4.13 66.62 44.21 113.5 113.18 113.5 39.41 0 70.36-17.78 80.39-23.61a4.47 4.47 0 0 0 1.82-5.72"/></svg>