<svg xmlns="http://www.w3.org/2000/svg" xml:space="preserve" id="Layer_1" x="0" y="0" version="1.1" viewBox="-25.048 -36.289 363.196 145.278" preserveAspectRatio="xMidYMid meet"><style>.st1{fill:#333232}.st2{fill:#f15a26}</style><path d="M135 30.5c-.1.4-.3.8-.5 1-.3.2-.5.3-.8.3s-.6-.1-.8-.3-.4-.5-.5-1L126 11.4c-.2-.5-.2-.8-.1-1.1.1-.5.6-.8 1.1-.8.2 0 .5.1.6.2.2.2.3.4.5.9l5.5 16.9 5.5-16.9c.2-.5.3-.7.5-.9s.4-.2.6-.2c.5 0 1 .3 1.1.8.1.3 0 .5-.1 1.1zm12.7-.3c0 .6 0 .8-.2 1.1s-.5.5-1 .5c-.4 0-.8-.2-1-.5s-.2-.5-.2-1.1v-19c0-.6 0-.8.2-1.1s.5-.5 1-.5c.4 0 .8.2 1 .5s.2.5.2 1.1zm6.7 1.1c-.3-.3-.3-.7-.3-1.1V11.1c0-.4 0-.8.3-1.1s.7-.3 1.1-.3h6.1c2.5 0 4.3.7 5.8 2.3 1.9 2.1 1.9 5.3 1.9 8.7s0 6.6-1.9 8.7c-1.5 1.6-3.3 2.3-5.8 2.3h-6.1c-.4 0-.8 0-1.1-.4m2-19.5v17.8h4.8c1.7 0 3.2-.4 4.3-1.6 1.4-1.5 1.4-4.2 1.4-7.3 0-3 0-5.8-1.4-7.3-1.1-1.2-2.7-1.6-4.3-1.6zm18.3 19.9q-.75 0-1.2-.3c-.2-.2-.3-.5-.3-.8s.1-.6.4-1.1l10.7-17.7h-9.2c-.6 0-.8 0-1-.2-.3-.2-.4-.5-.4-.9s.2-.7.4-.9c.2-.1.4-.2 1-.2h10.6q.75 0 1.2.3c.2.2.3.5.3.8s-.1.6-.4 1.1l-10.7 17.7h9.6c.6 0 .8 0 1 .2.3.2.4.5.4.9s-.2.7-.4.9c-.2.1-.4.2-1 .2zm29.5-22.1c.6 0 .8 0 1 .2.3.2.4.5.4.9s-.2.7-.4.9c-.2.1-.4.2-1 .2h-9.9v7.8h8.3c.6 0 .8 0 1 .2.3.2.4.5.4.9s-.2.7-.4.9c-.2.1-.4.2-1 .2h-8.3v7.9h9.9c.6 0 .8 0 1 .2.3.2.4.5.4.9s-.2.7-.4.9c-.2.1-.4.2-1 .2h-10.9c-.4 0-.8 0-1.1-.3s-.3-.7-.3-1.1V11.1c0-.4 0-.8.3-1.1s.7-.3 1.1-.3h10.9zm14.3 17.7-5.7-12.2v15.1c0 .6 0 .8-.2 1.1s-.5.5-1 .5c-.4 0-.8-.2-1-.5s-.2-.5-.2-1.1V11c0-.5.1-.9.4-1.2.2-.2.5-.4.9-.4.3 0 .5.1.7.2s.4.4.6.8l6.9 14.8 6.9-14.8c.2-.4.4-.7.6-.8s.4-.2.7-.2.6.1.9.4.4.6.4 1.2v19.1c0 .6 0 .8-.2 1.1s-.5.5-1 .5c-.4 0-.8-.2-1-.5s-.2-.5-.2-1.1v-15l-5.7 12.2c-.3.7-.7 1.1-1.4 1.1s-1-.4-1.4-1.1M248 9.6c.6 0 .8 0 1 .2.3.2.4.5.4.9s-.2.7-.4.9c-.2.1-.4.2-1 .2h-9.9v7.8h8.3c.6 0 .8 0 1 .2.3.2.4.5.4.9s-.2.7-.4.9c-.2.1-.4.2-1 .2h-8.3v7.9h9.9c.6 0 .8 0 1 .2.3.2.4.5.4.9s-.2.7-.4.9c-.2.1-.4.2-1 .2h-10.9c-.4 0-.8 0-1.1-.3s-.3-.7-.3-1.1V11.1c0-.4 0-.8.3-1.1s.7-.3 1.1-.3H248zm10.7 11.8c-1.7-.3-2.9-.7-4-1.7-1.2-1-1.7-2.4-1.7-4.1 0-3.7 2.7-6.2 7.1-6.2 2.3 0 3.5.4 5.4 1.5.5.3.9.7.9 1.2 0 .3-.1.5-.3.7s-.4.3-.7.3-.7-.2-1.1-.4c-1.5-1-2.5-1.3-4.3-1.3-3 0-4.7 1.6-4.7 4.1 0 1.1.3 2 1 2.6.8.7 1.5 1 3 1.2l2.4.4c2.1.3 3.1.7 4 1.5 1.2 1 1.8 2.6 1.8 4.4 0 3.9-3 6.2-7.6 6.2-2.7 0-4.3-.5-6.3-1.9-.6-.4-1-.8-1-1.3 0-.3.1-.6.3-.8s.4-.3.7-.3.7.2 1.1.5c1.6 1.3 3 1.7 5.2 1.7 3.2 0 5.2-1.5 5.2-4.1 0-1.2-.4-2.1-1.1-2.8-.7-.6-1.3-.8-2.9-1.1zm-126.3 19c.2-.4.3-.6.5-.9.2-.2.5-.4.9-.4s.7.2.9.4.3.4.5.9l7.1 19.1c.2.6.4 1.1-.1 1.6-.2.2-.5.4-.9.4-.2 0-.4-.1-.6-.2-.2-.2-.4-.4-.6-.9l-1.5-4h-9.8l-1.5 4c-.2.6-.3.7-.6.9-.2.1-.4.2-.6.2-.3 0-.6-.1-.9-.4-.5-.5-.3-1-.1-1.6zm-2.8 13.9h8.3L133.8 43zm24.2 7.2c-4.5 0-7.7-3.1-7.7-7.5V40.7c0-.6 0-.8.2-1.1s.5-.5 1-.5c.4 0 .8.2 1 .5s.2.5.2 1.1v13.1c0 3.3 2.1 5.5 5.3 5.5s5.3-2.2 5.3-5.5V40.7c0-.6 0-.8.2-1.1s.5-.5 1-.5c.4 0 .8.2 1 .5s.2.5.2 1.1V54c0 4.4-3.2 7.5-7.7 7.5m16.9-3.7c1 1 2.3 1.6 3.8 1.6s2.8-.5 3.8-1.5c1.3-1.3 1.5-2.7 1.5-5.9h-4.1c-.6 0-.8 0-1-.2-.3-.2-.4-.5-.4-.9s.2-.7.4-.9c.2-.1.4-.2 1-.2h4.9c.4 0 .8 0 1.1.3s.3.7.3 1.1v.4c0 4-.4 5.8-2.2 7.6-1.4 1.4-3.2 2.2-5.5 2.2s-4.1-.8-5.5-2.2c-2.1-2.1-2.2-4-2.2-9 0-5.1.2-6.9 2.2-9 1.3-1.4 3.2-2.2 5.5-2.2 2.8 0 4.7 1.1 5.9 2.6.9 1.1 1.4 2.5 1.4 3.2 0 .4-.1.6-.3.9-.2.2-.5.3-.8.3s-.6-.1-.7-.2c-.2-.2-.4-.6-.6-1-.8-2.3-2.5-3.7-4.9-3.7-1.5 0-2.8.5-3.8 1.6-1.4 1.4-1.5 3.1-1.5 7.5.1 4.6.3 6.2 1.7 7.6m21.4-6.7c-1.7-.3-2.9-.7-4-1.7-1.2-1-1.7-2.4-1.7-4.1 0-3.7 2.7-6.2 7.1-6.2 2.3 0 3.5.4 5.4 1.5.5.3.9.7.9 1.2 0 .3-.1.5-.3.7s-.4.3-.7.3-.7-.2-1.1-.4c-1.5-1-2.5-1.3-4.3-1.3-3 0-4.7 1.6-4.7 4.1 0 1.1.3 2 1 2.6.8.7 1.5 1 3 1.2l2.4.4c2.1.3 3.1.7 4 1.5 1.2 1 1.8 2.6 1.8 4.4 0 3.9-3 6.2-7.6 6.2-2.7 0-4.3-.5-6.3-1.9-.6-.4-1-.8-1-1.3 0-.3.1-.6.3-.8s.4-.3.7-.3.7.2 1.1.5c1.6 1.3 3 1.7 5.2 1.7 3.2 0 5.2-1.5 5.2-4.1 0-1.2-.4-2.1-1.1-2.8-.7-.6-1.3-.8-2.9-1.1zm25-11.8c.6 0 .8 0 1 .2.3.2.4.5.4.9s-.2.7-.4.9c-.2.1-.4.2-1 .2h-5v18.4c0 .6 0 .8-.2 1.1s-.5.5-1 .5-.8-.2-1-.5-.2-.5-.2-1.1V41.4h-5c-.6 0-.8 0-1-.2-.3-.2-.4-.5-.4-.9s.2-.7.4-.9c.2-.1.4-.2 1-.2h12.4zm9.7 11.8c-1.7-.3-2.9-.7-4-1.7-1.2-1-1.7-2.4-1.7-4.1 0-3.7 2.7-6.2 7.1-6.2 2.3 0 3.5.4 5.4 1.5.5.3.9.7.9 1.2 0 .3-.1.5-.3.7s-.4.3-.7.3-.7-.2-1.1-.4c-1.5-1-2.5-1.3-4.3-1.3-3 0-4.7 1.6-4.7 4.1 0 1.1.3 2 1 2.6.8.7 1.5 1 3 1.2l2.4.4c2.1.3 3.1.7 4 1.5 1.2 1 1.8 2.6 1.8 4.4 0 3.9-3 6.2-7.6 6.2-2.7 0-4.3-.5-6.3-1.9-.6-.4-1-.8-1-1.3 0-.3.1-.6.3-.8s.4-.3.7-.3.7.2 1.1.5c1.6 1.3 3 1.7 5.2 1.7 3.2 0 5.2-1.5 5.2-4.1 0-1.2-.4-2.1-1.1-2.8-.7-.6-1.3-.8-2.9-1.1zm16.1.6 9.8-11.8c.3-.4.6-.7 1.1-.7.3 0 .5.1.8.3s.4.5.4.9c0 .3-.1.6-.5 1l-5.2 6.4 6.6 11.6c.3.5.4.8.4 1.1q0 .6-.6.9c-.2.1-.4.2-.6.2-.6 0-.9-.5-1.2-1l-6.2-11-4.6 5.5v4.8c0 .6 0 .8-.2 1.1s-.5.5-1 .5c-.4 0-.8-.2-1-.5s-.2-.5-.2-1.1v-19c0-.6 0-.8.2-1.1s.5-.5 1-.5c.4 0 .8.2 1 .5s.2.5.2 1.1v10.8zm29.8-10.5c2.1 2.1 2.2 4 2.2 9 0 5.1-.1 6.9-2.2 9-1.4 1.3-3.2 2.2-5.5 2.2s-4.1-.8-5.5-2.2c-2.1-2.1-2.2-4-2.2-9 0-5.1.1-6.9 2.2-9 1.4-1.3 3.2-2.2 5.5-2.2s4.1.9 5.5 2.2M271 57.8c1.4-1.4 1.5-3 1.5-7.5s-.2-6.1-1.5-7.5c-1-1-2.3-1.6-3.8-1.6s-2.8.5-3.8 1.6c-1.4 1.4-1.5 3-1.5 7.5s.2 6.1 1.5 7.5c1 1 2.3 1.6 3.8 1.6s2.8-.6 3.8-1.6m9.8 3.2c-.3-.3-.3-.7-.3-1.1V40.7c0-.6 0-.8.2-1.1s.5-.5 1-.5c.4 0 .8.2 1 .5s.2.5.2 1.1v18.4h9.9c.6 0 .8 0 1 .2.3.2.4.5.4.9s-.2.7-.4.9c-.2.1-.4.2-1 .2H282c-.5 0-.9 0-1.2-.3M303 40.4c.2-.4.3-.6.5-.9.2-.2.5-.4.9-.4s.7.2.9.4.3.4.5.9l7.1 19.1c.2.6.4 1.1-.1 1.6-.2.2-.5.4-.9.4-.2 0-.4-.1-.6-.2-.2-.2-.4-.4-.6-.9l-1.5-4h-9.8l-1.5 4c-.2.6-.3.7-.6.9-.2.1-.4.2-.6.2-.3 0-.6-.1-.9-.4-.5-.5-.3-1-.1-1.6zm-2.8 13.9h8.3L304.4 43z" style="fill:#fff"/><path d="M27.9 72.7c-.9 0-1.8-.6-2.2-1.5L.1 3.1C-.4 1.9.3.6 1.4.1c1.2-.5 2.5.2 3 1.3l25.6 68c.5 1.2-.2 2.5-1.3 3-.2.2-.5.3-.8.3" class="st1"/><path d="M50.2 14c-.3 0-.6 0-.8-.2-1.2-.5-1.8-1.8-1.3-3l3.6-9.4c.5-1.2 1.8-1.8 3-1.3s1.8 1.8 1.3 3l-3.6 9.4c-.3 1-1.2 1.5-2.2 1.5" class="st2"/><path d="m98.5 68.6-51.1-47-.1-.1-.2-.2c-.1 0-.2-.1-.2-.1-.1 0-.1-.1-.2-.1s-.2-.1-.3-.1h-1c-.1 0-.3.1-.4.1s-.2.1-.2.1l-.1.1-.1.1-.2.2-.1.1-.2.2c0 .1-.1.2-.1.2 0 .1-.1.1-.1.1L26 69.2c-.5 1.2.1 2.5 1.3 3 .3.1.5.2.8.2.9 0 1.8-.6 2.2-1.5L47 27.1l48.6 44.7c.4.4 1 .6 1.6.6s1.2-.3 1.7-.7c.6-.7.5-2.2-.4-3.1" style="fill:#87b04a"/><path d="M45.1 72.7c-.3 0-.6 0-.8-.2-1.2-.5-1.8-1.8-1.3-3l25.9-68c.5-1.2 1.8-1.8 3-1.3s1.8 1.8 1.3 3l-25.9 68c-.3.9-1.2 1.5-2.2 1.5" class="st2"/><path d="M96.9 72.7c-.9 0-1.8-.6-2.2-1.5l-25.9-68c-.5-1.2.1-2.5 1.3-3s2.5.1 3 1.3l25.9 68c.5 1.2-.1 2.5-1.3 3-.2.1-.5.2-.8.2" class="st1"/></svg>